<svg width="249" height="267" viewBox="0 0 249 267" fill="none" xmlns="http://www.w3.org/2000/svg">
<path d="M139.261 266.994C139.059 266.994 138.864 266.896 138.741 266.724L133.065 258.611C132.889 258.357 132.918 258.013 133.141 257.796L158.691 232.548L195.816 209.599L230.815 197.47C231.077 197.377 231.375 197.473 231.542 197.706L237.227 205.815C237.402 206.068 237.373 206.413 237.154 206.629L211.595 231.928L174.475 254.882L139.468 266.959C139.398 266.982 139.331 266.994 139.261 266.994ZM134.411 258.322L139.506 265.605L173.935 253.744L210.815 230.939L235.88 206.105L230.777 198.824L196.357 210.736L159.468 233.538L134.411 258.322Z" fill="white"/>
<path d="M236.707 206.813C236.502 206.813 236.31 206.714 236.187 206.543L230.502 198.433C230.429 198.326 230.388 198.199 230.388 198.069V114.064L236.082 81.0541C236.125 80.8014 236.318 80.5998 236.569 80.5443C236.803 80.4815 237.075 80.5882 237.227 80.7985L248.886 97.4271C248.959 97.5337 249 97.6608 249 97.7908V138.804L237.332 206.287C237.288 206.54 237.095 206.741 236.844 206.797C236.8 206.807 236.754 206.813 236.707 206.813ZM231.656 197.869L236.345 204.558L247.741 138.696L247.732 97.9909L237.069 82.7836L231.647 114.173L231.656 197.869Z" fill="white"/>
<path d="M248.366 98.4247C248.168 98.4247 247.972 98.3298 247.846 98.1545L236.187 81.5259L210.607 39.8215C210.429 39.5293 210.514 39.1481 210.8 38.9597C211.086 38.7742 211.472 38.8443 211.668 39.1262L223.283 55.7051L248.907 97.4592C249.085 97.7513 249 98.1326 248.714 98.321C248.606 98.3911 248.486 98.4247 248.366 98.4247Z" fill="white"/>
<path d="M139.261 266.994C139.197 266.994 139.133 266.984 139.068 266.963L74.9349 246.382C74.8034 246.34 74.6895 246.256 74.6077 246.142L57.2692 221.402C57.1056 221.166 57.1202 220.846 57.3072 220.627C57.4942 220.411 57.8039 220.345 58.0697 220.471L133.865 257.679C133.959 257.726 134.044 257.796 134.105 257.883L139.781 265.996C139.936 266.22 139.933 266.518 139.772 266.737C139.65 266.9 139.46 266.994 139.261 266.994ZM75.525 245.24L137.663 265.181L133.158 258.744L59.7232 222.694L75.525 245.24Z" fill="white"/>
<path d="M75.127 246.412C75.0335 246.412 74.9371 246.391 74.8465 246.348L37.8441 228.199C37.7506 228.151 37.6659 228.081 37.6046 227.993L25.9394 211.363C25.7846 211.141 25.7875 210.843 25.9482 210.624C26.1118 210.405 26.3893 210.313 26.6522 210.396L57.9813 220.435C58.1128 220.478 58.2267 220.561 58.3085 220.675L75.647 245.415C75.8106 245.652 75.796 245.971 75.609 246.191C75.4863 246.335 75.3081 246.412 75.127 246.412ZM38.5511 227.133L73.193 244.125L57.3912 221.578L28.0604 212.178L38.5511 227.133Z" fill="white"/>
<path d="M0.90928 128.947C0.809962 128.947 0.707724 128.924 0.617141 128.876C0.371747 128.747 0.237374 128.477 0.284101 128.205L11.9434 60.7737C11.9668 60.6437 12.0281 60.5239 12.1245 60.4304L37.6809 35.1852C37.8737 34.9938 38.1776 34.95 38.4171 35.0742C38.6625 35.2027 38.7969 35.4729 38.7501 35.7446L27.085 103.122C27.0616 103.252 27.0003 103.372 26.9068 103.464L1.35625 128.763C1.23354 128.885 1.07286 128.947 0.90928 128.947ZM13.1587 61.19L1.87042 126.469L25.8697 102.706L37.1638 37.477L13.1587 61.19Z" fill="white"/>
<path d="M139.26 33.9875C139.196 33.9875 139.129 33.9772 139.068 33.9568L74.9342 13.3756C74.6742 13.2923 74.496 13.0528 74.4931 12.7796C74.4901 12.5064 74.6625 12.2625 74.9196 12.1734L109.754 0.109503C109.886 0.0656775 110.029 0.0642114 110.155 0.105135L174.335 20.6864C174.595 20.7696 174.773 21.0092 174.776 21.2823C174.779 21.5555 174.606 21.7994 174.349 21.8885L139.468 33.9524C139.401 33.9758 139.331 33.9875 139.26 33.9875ZM77.1311 12.7489L139.252 32.686L172.138 21.313L109.971 1.3759L77.1311 12.7489Z" fill="white"/>
<path d="M133.585 258.881C133.491 258.881 133.395 258.859 133.304 258.815L57.5086 221.607C57.3246 221.518 57.196 221.343 57.1639 221.141C57.1318 220.938 57.1989 220.732 57.345 220.587L82.9014 195.339C83.0913 195.152 83.3747 195.104 83.6259 195.222L159.416 232.431C159.6 232.52 159.728 232.695 159.76 232.897C159.793 233.1 159.725 233.306 159.579 233.45L134.029 258.698C133.909 258.818 133.748 258.881 133.585 258.881ZM58.87 220.863L133.459 257.48L158.054 233.174L83.4711 196.557L58.87 220.863Z" fill="white"/>
<path d="M196.149 210.771C196.017 210.771 195.889 210.731 195.781 210.653C195.614 210.535 195.515 210.342 195.515 210.138V126.13C195.515 125.86 195.687 125.619 195.941 125.531L230.814 113.466C231.007 113.395 231.223 113.428 231.39 113.549C231.556 113.667 231.656 113.86 231.656 114.064V198.069C231.656 198.339 231.483 198.58 231.229 198.668L196.356 210.736C196.289 210.76 196.219 210.771 196.149 210.771ZM196.783 126.581V209.248L230.388 197.618V114.954L196.783 126.581Z" fill="white"/>
<path d="M57.7886 113.682C57.7244 113.682 57.6571 113.672 57.5958 113.651L26.2667 103.618C25.9658 103.521 25.7818 103.217 25.8344 102.906L37.4995 35.5286C37.5316 35.3504 37.6368 35.1926 37.7917 35.0977L74.7941 12.2333C74.9518 12.1355 75.1505 12.1121 75.3199 12.1691L139.453 32.7503C139.754 32.8467 139.938 33.1506 139.886 33.4617L134.209 66.3654C134.177 66.5436 134.072 66.7013 133.917 66.7963L58.1217 113.587C58.0194 113.65 57.9055 113.682 57.7886 113.682ZM27.1782 102.579L57.7039 112.355L133.009 65.8687L138.542 33.7889L75.2118 13.4647L38.7002 36.0252L27.1782 102.579Z" fill="white"/>
<path d="M57.7885 221.673C57.7242 221.673 57.6599 221.662 57.5957 221.642L26.2666 211.603C26.1205 211.556 25.9978 211.459 25.9189 211.331L0.368387 169.659C0.307031 169.559 0.274902 169.444 0.274902 169.327V128.314C0.274902 128.144 0.342092 127.982 0.461872 127.864L26.0124 102.564C26.1819 102.396 26.4185 102.336 26.6522 102.411L57.9813 112.444C58.1274 112.491 58.25 112.588 58.3289 112.716L83.8853 154.445C83.9467 154.546 83.9788 154.66 83.9788 154.777V195.791C83.9788 195.96 83.9116 196.122 83.7889 196.242L58.2325 221.49C58.1127 221.608 57.9521 221.673 57.7885 221.673ZM26.8772 210.468L57.6161 220.319L82.7109 195.526V154.955L57.3707 113.579L26.6318 103.734L1.54279 128.578V169.149L26.8772 210.468Z" fill="white"/>
<path d="M159.135 233.633C159.038 233.633 158.945 233.611 158.854 233.567L83.0644 196.359C82.8482 196.254 82.7109 196.032 82.7109 195.791V154.777C82.7109 154.558 82.8249 154.353 83.0118 154.238L158.802 107.39C158.989 107.275 159.216 107.265 159.415 107.361L196.429 125.562C196.645 125.668 196.783 125.889 196.783 126.13V210.137C196.783 210.357 196.669 210.561 196.482 210.676L159.468 233.538C159.365 233.601 159.252 233.633 159.135 233.633ZM83.9788 195.396L159.1 232.276L195.515 209.784V126.524L159.17 108.653L83.9788 155.13V195.396Z" fill="white"/>
<path d="M196.149 126.764C196.053 126.764 195.956 126.742 195.869 126.698L158.854 108.498C158.746 108.445 158.659 108.363 158.594 108.261L133.044 66.5888C132.965 66.4574 132.933 66.3011 132.959 66.1492L138.635 33.2455C138.676 33.0176 138.834 32.8306 139.053 32.7547L173.935 20.6908C174.092 20.6353 174.271 20.6455 174.423 20.7215L211.428 38.9218C211.536 38.9743 211.624 39.0561 211.688 39.1584L237.247 80.8307C237.326 80.9622 237.358 81.1184 237.332 81.2703L231.647 114.173C231.606 114.4 231.448 114.587 231.229 114.663L196.356 126.729C196.289 126.752 196.219 126.764 196.149 126.764ZM159.579 107.442L196.193 125.445L230.461 113.588L236.041 81.2893L210.703 39.9778L174.098 21.9747L139.822 33.8297L134.25 66.1301L159.579 107.442Z" fill="white"/>
<path d="M83.3452 155.411C83.2956 155.411 83.2459 155.405 83.1992 155.393C83.0355 155.354 82.8924 155.252 82.8048 155.109L57.2484 113.379C57.0672 113.081 57.1578 112.691 57.4558 112.509L133.251 65.7182C133.398 65.6305 133.576 65.6028 133.731 65.6408C133.894 65.6802 134.037 65.7824 134.125 65.9256L159.676 107.598C159.857 107.896 159.766 108.284 159.468 108.468L83.6783 155.316C83.5789 155.379 83.4621 155.411 83.3452 155.411ZM58.6594 113.255L83.5526 153.903L158.264 107.722L133.377 67.1307L58.6594 113.255Z" fill="white"/>
</svg>
