<svg width="275" height="278" viewBox="0 0 275 278" fill="none" xmlns="http://www.w3.org/2000/svg">
<path d="M271.496 106.712C271.267 106.712 271.046 106.587 270.935 106.369L265.509 95.7537L254.873 66.9812C254.754 66.6587 254.915 66.3014 255.236 66.1765C255.556 66.0516 255.917 66.2084 256.048 66.5251L272.08 105.843C272.208 106.157 272.066 106.514 271.759 106.654C271.673 106.694 271.585 106.712 271.496 106.712Z" fill="white"/>
<path d="M274.369 147.073C274.039 147.073 273.763 146.817 273.74 146.486L270.867 106.125C270.842 105.785 271.096 105.486 271.439 105.454C271.785 105.399 272.085 105.669 272.122 106.012L274.995 131.966L274.999 146.443C274.999 146.783 274.731 147.061 274.391 147.073L274.369 147.073Z" fill="white"/>
<path d="M272.28 169.788C272.266 169.788 272.25 169.788 272.234 169.785C271.891 169.762 271.632 169.466 271.651 169.123L273.74 132.001C273.76 131.661 274.046 131.426 274.386 131.406C274.728 131.414 274.999 131.696 274.999 132.036V146.443C274.999 146.463 274.998 146.48 274.996 146.501L272.908 169.216C272.877 169.541 272.604 169.788 272.28 169.788Z" fill="white"/>
<path d="M216.45 252.904C216.285 252.904 216.121 252.841 215.997 252.713C215.762 252.469 215.762 252.082 215.996 251.838L244.07 222.496C244.292 222.267 244.655 222.238 244.909 222.432C245.165 222.63 245.23 222.987 245.06 223.263L239.153 232.853C239.121 232.905 239.081 232.952 239.036 232.993L216.87 252.745C216.75 252.852 216.6 252.904 216.45 252.904ZM240.87 227.665L227.846 241.275L238.129 232.112L240.87 227.665Z" fill="white"/>
<path d="M238.617 233.152C238.495 233.152 238.371 233.118 238.263 233.042C237.984 232.853 237.904 232.478 238.081 232.191L243.989 222.601C244.003 222.578 244.019 222.554 244.036 222.534L259.464 203.598C259.679 203.328 260.073 203.29 260.34 203.5C260.61 203.712 260.663 204.098 260.456 204.374L239.121 232.9C238.997 233.065 238.809 233.152 238.617 233.152Z" fill="white"/>
<path d="M9.50152 183.643C9.27056 183.643 9.05123 183.515 8.94083 183.3L3.51839 172.691C3.48352 172.621 3.46174 172.548 3.45302 172.473L0.575477 146.512C0.537696 146.181 0.767216 145.876 1.09695 145.821C1.4296 145.763 1.7419 145.978 1.81597 146.303L10.116 182.873C10.1872 183.184 10.0157 183.498 9.7165 183.605C9.64532 183.631 9.57271 183.643 9.50152 183.643ZM4.69206 172.22L7.77296 178.248L3.05792 157.468L4.69206 172.22Z" fill="white"/>
<path d="M171.463 8.72734C171.428 8.72734 171.393 8.72442 171.357 8.71862L131.773 2.00484C131.44 1.94674 131.211 1.63878 131.254 1.3047C131.296 0.970624 131.587 0.720765 131.933 0.75563L165.923 3.63463C166.03 3.64334 166.135 3.68106 166.225 3.74207L171.819 7.57686C172.063 7.74535 172.159 8.0591 172.047 8.33219C171.95 8.57331 171.716 8.72734 171.463 8.72734ZM146.856 3.2831L168.742 6.99587L165.65 4.87512L146.856 3.2831Z" fill="white"/>
<path d="M202.567 17.957C202.507 17.957 202.448 17.9483 202.388 17.9309L171.284 8.70122C171.22 8.68379 171.161 8.65475 171.107 8.61697L165.513 4.78219C165.252 4.60206 165.163 4.25925 165.307 3.97456C165.451 3.69566 165.783 3.55624 166.081 3.66952L202.779 16.7339C203.1 16.8472 203.271 17.1988 203.165 17.5212C203.08 17.7885 202.833 17.957 202.567 17.957ZM171.738 7.52174L180.187 10.0289L170.218 6.47879L171.738 7.52174Z" fill="white"/>
<path d="M255.464 67.3938C255.298 67.3938 255.131 67.327 255.008 67.1991L230.076 41.0761C230.018 41.0151 229.971 40.9395 229.942 40.8611L228.151 36.0647C228.044 35.7771 228.157 35.4575 228.42 35.3007C228.684 35.1496 229.018 35.2019 229.217 35.4314L255.94 66.3508C256.164 66.6093 256.141 66.9987 255.888 67.2311C255.767 67.3386 255.615 67.3938 255.464 67.3938ZM231.077 40.2975L238.289 47.8538L230.56 38.9118L231.077 40.2975Z" fill="white"/>
<path d="M230.532 41.2707C230.388 41.2707 230.245 41.2214 230.128 41.1255L202.163 17.8117C201.903 17.5938 201.861 17.2103 202.068 16.9431C202.271 16.67 202.653 16.6148 202.932 16.8123L229.106 35.3297C229.209 35.4023 229.287 35.504 229.331 35.6231L231.122 40.4195C231.222 40.6867 231.129 40.9889 230.897 41.1545C230.788 41.2329 230.66 41.2707 230.532 41.2707ZM215.186 27.0268L229.11 38.6357L228.218 36.2477L215.186 27.0268Z" fill="white"/>
<path d="M36.9655 46.5871C36.7825 46.5871 36.6009 46.5058 36.476 46.3547C36.2639 46.0933 36.2944 45.7098 36.5457 45.4861L58.7004 25.734C58.7773 25.6643 58.8703 25.6178 58.9705 25.5917L65.8339 23.9183C66.1273 23.8515 66.4266 23.9909 66.5544 24.264C66.6822 24.5371 66.5994 24.8596 66.3583 25.0397L37.3403 46.4651C37.227 46.5465 37.0963 46.5871 36.9655 46.5871ZM59.4223 26.7799L47.5896 37.3285L63.0871 25.8851L59.4223 26.7799Z" fill="white"/>
<path d="M59.1198 26.8351C58.8627 26.8351 58.6245 26.6753 58.53 26.4255C58.4182 26.1292 58.546 25.7922 58.8293 25.6469L93.765 7.48978C94.0643 7.33 94.4405 7.44331 94.6075 7.74252C94.7731 8.04177 94.67 8.41941 94.3751 8.59082L66.3028 25.0746C66.249 25.1065 66.1924 25.1298 66.1328 25.1443L59.2694 26.8177C59.2186 26.8293 59.1692 26.8351 59.1198 26.8351ZM72.6926 19.8599L64.0455 24.3542L65.7435 23.9416L72.6926 19.8599Z" fill="white"/>
<path d="M143.705 277.735C143.442 277.735 143.201 277.569 143.111 277.316C143.008 277.026 143.13 276.703 143.399 276.552L148.854 273.519C148.927 273.479 149.008 273.455 149.091 273.444L181.446 269.81C181.758 269.807 182.091 270.007 182.139 270.347C182.188 270.684 181.96 270.998 181.624 271.059L143.814 277.726C143.778 277.732 143.741 277.735 143.705 277.735ZM149.357 274.684L147.29 275.832L161.609 273.307L149.357 274.684Z" fill="white"/>
<path d="M143.705 277.735C143.687 277.735 143.67 277.735 143.651 277.732L109.659 274.85C109.324 274.821 109.07 274.533 109.083 274.196C109.097 273.859 109.373 273.595 109.71 273.592L149.158 273.441C149.444 273.441 149.698 273.636 149.771 273.912C149.843 274.19 149.718 274.484 149.467 274.623L144.011 277.656C143.917 277.709 143.812 277.735 143.705 277.735ZM123.963 274.798L143.567 276.459L146.713 274.71L123.963 274.798Z" fill="white"/>
<path d="M265.328 184.395C265.258 184.395 265.187 184.384 265.117 184.358C264.812 184.25 264.64 183.931 264.715 183.617L273.756 146.294C273.833 145.972 274.138 145.769 274.472 145.821C274.797 145.876 275.027 146.172 274.996 146.501L272.908 169.216C272.9 169.289 272.881 169.361 272.849 169.428L265.897 184.035C265.79 184.262 265.565 184.395 265.328 184.395ZM272.953 154.969L267.372 178.004L271.663 168.989L272.953 154.969Z" fill="white"/>
<path d="M259.952 204.627C259.891 204.627 259.827 204.618 259.766 204.598C259.442 204.499 259.256 204.162 259.344 203.834L264.72 183.602C264.73 183.565 264.743 183.53 264.759 183.495L271.711 168.888C271.856 168.586 272.219 168.446 272.521 168.577C272.831 168.705 272.986 169.053 272.874 169.367L260.546 204.206C260.455 204.464 260.212 204.627 259.952 204.627ZM265.922 183.983L264.586 189.012L267.651 180.351L265.922 183.983Z" fill="white"/>
<path d="M244.525 223.563C244.404 223.563 244.284 223.528 244.176 223.458C243.906 223.278 243.816 222.923 243.968 222.636L264.772 183.469C264.922 183.184 265.257 183.059 265.559 183.178C265.857 183.294 266.02 183.617 265.937 183.928L260.561 204.159C260.539 204.243 260.497 204.325 260.441 204.394L245.013 223.33C244.889 223.481 244.708 223.563 244.525 223.563ZM263.309 188.91L248.098 217.549L259.379 203.703L263.309 188.91Z" fill="white"/>
<path d="M46.8339 243.274C46.6567 243.274 46.481 243.198 46.3575 243.056L19.6302 212.134C19.4268 211.898 19.4254 211.553 19.6258 211.314C19.8277 211.076 20.1691 211.018 20.4335 211.184L27.9098 215.719C27.981 215.759 28.0434 215.817 28.0928 215.884L47.3423 242.272C47.5427 242.545 47.4904 242.925 47.2261 243.137C47.1099 243.227 46.9719 243.274 46.8339 243.274ZM23.1962 214.333L37.3225 230.674L27.1487 216.73L23.1962 214.333Z" fill="white"/>
<path d="M27.5834 216.887C27.4701 216.887 27.3582 216.857 27.2566 216.794L19.7802 212.259C19.6582 212.186 19.5652 212.073 19.5159 211.939L8.91065 183.23C8.79591 182.92 8.94113 182.574 9.24183 182.437C9.54107 182.301 9.89692 182.42 10.0553 182.71L28.1369 215.954C28.2734 216.204 28.224 216.515 28.0178 216.712C27.8986 216.828 27.7417 216.887 27.5834 216.887ZM20.6212 211.297L25.9144 214.507L13.1144 190.973L20.6212 211.297Z" fill="white"/>
<path d="M73.0062 261.783C72.877 261.783 72.7506 261.742 72.6416 261.666L46.4692 243.158C46.1976 242.966 46.1221 242.594 46.2978 242.312C46.4736 242.028 46.8382 241.926 47.1331 242.089L78.571 259.005C78.7948 259.127 78.924 259.368 78.8993 259.624C78.8732 259.877 78.6974 260.089 78.4548 260.164L73.1893 261.756C73.1283 261.774 73.0672 261.783 73.0062 261.783ZM55.632 248.094L73.1181 260.461L76.6362 259.397L55.632 248.094Z" fill="white"/>
<path d="M109.713 274.853C109.644 274.853 109.571 274.841 109.501 274.815L72.7948 261.745C72.5392 261.655 72.3707 261.408 72.3765 261.138C72.3837 260.865 72.5639 260.626 72.8239 260.548L78.0894 258.956C78.2362 258.912 78.3974 258.924 78.5383 258.988L109.979 273.65C110.284 273.792 110.424 274.15 110.296 274.461C110.197 274.705 109.962 274.853 109.713 274.853ZM75.0231 261.202L97.3404 269.147L78.2245 260.234L75.0231 261.202Z" fill="white"/>
<path d="M65.9831 25.1617C65.7463 25.1617 65.5197 25.0281 65.4137 24.8015C65.2742 24.5052 65.3832 24.1537 65.6635 23.9881L93.7359 7.50428C93.9334 7.38808 94.1789 7.38808 94.3764 7.50428L100.788 11.2955C100.997 11.4204 101.116 11.6528 101.095 11.8969C101.073 12.138 100.913 12.3471 100.685 12.4314L66.2009 25.124C66.1297 25.1501 66.0557 25.1617 65.9831 25.1617ZM94.054 8.77964L72.3831 21.5042L99.0044 11.7051L94.054 8.77964Z" fill="white"/>
<path d="M100.467 12.4692C100.356 12.4692 100.245 12.4401 100.146 12.382L93.7347 8.5908C93.5081 8.45717 93.389 8.1957 93.4355 7.93424C93.4834 7.67569 93.6868 7.47233 93.9468 7.42584L131.77 0.761444C132.086 0.703345 132.408 0.906696 132.491 1.22917C132.571 1.54873 132.392 1.87701 132.078 1.9816L100.666 12.4373C100.601 12.4576 100.534 12.4692 100.467 12.4692ZM95.8438 8.37291L100.541 11.1502L123.555 3.48933L95.8438 8.37291Z" fill="white"/>
<path d="M3.29031 109.954C3.20315 109.954 3.11603 109.937 3.03321 109.899C2.73254 109.765 2.58727 109.422 2.69621 109.115L15.0242 74.2732C15.0983 74.0611 15.2784 73.9071 15.4977 73.8635C15.7069 73.8199 15.9408 73.8955 16.0889 74.064L20.2738 78.7761C20.451 78.9737 20.4844 79.2642 20.3551 79.4966L3.84229 109.626C3.72897 109.835 3.51402 109.954 3.29031 109.954ZM15.8565 75.6996L6.48597 102.183L19.0376 79.2816L15.8565 75.6996Z" fill="white"/>
<path d="M19.8032 79.8249C19.6245 79.8249 19.4517 79.7493 19.3326 79.6128L15.1477 74.9007C14.9487 74.677 14.9342 74.3458 15.1143 74.1047L36.4613 45.5791C36.6574 45.3147 37.0278 45.2537 37.2994 45.4222C37.5783 45.5965 37.6756 45.9538 37.526 46.2473L20.3639 79.485C20.268 79.668 20.0879 79.7929 19.8817 79.8191C19.8555 79.822 19.8294 79.8249 19.8032 79.8249ZM16.4303 74.4475L19.6652 78.0905L32.9257 52.4062L16.4303 74.4475Z" fill="white"/>
<path d="M149.16 274.702C148.865 274.702 148.607 274.495 148.544 274.202C148.476 273.885 148.661 273.569 148.97 273.47L187.113 261.376C187.361 261.289 187.648 261.388 187.809 261.602C187.97 261.817 187.976 262.111 187.823 262.332L182.035 270.791C181.932 270.945 181.768 271.044 181.584 271.065L149.23 274.699C149.207 274.699 149.183 274.702 149.16 274.702ZM185.75 263.131L155.486 272.726L181.157 269.844L185.75 263.131Z" fill="white"/>
<path d="M181.515 271.067C181.339 271.067 181.166 270.995 181.043 270.855C180.851 270.637 180.832 270.321 180.995 270.08L186.783 261.62C186.86 261.507 186.974 261.422 187.104 261.379L216.252 251.676C216.561 251.577 216.903 251.725 217.032 252.027C217.16 252.332 217.033 252.681 216.741 252.832L181.806 270.995C181.714 271.044 181.614 271.067 181.515 271.067ZM187.704 262.509L183.454 268.717L209.099 255.385L187.704 262.509Z" fill="white"/>
<path d="M271.496 106.712C271.281 106.712 271.073 106.602 270.956 106.404L253.436 77.1376C253.361 77.0127 253.332 76.8674 253.353 76.7222L254.841 66.6703C254.881 66.3914 255.107 66.1706 255.388 66.1387C255.667 66.1038 255.942 66.2636 256.048 66.5251L272.08 105.843C272.203 106.148 272.073 106.497 271.778 106.645C271.688 106.692 271.592 106.712 271.496 106.712ZM254.633 76.6844L267.792 98.6676L255.75 69.1339L254.633 76.6844Z" fill="white"/>
<path d="M253.977 77.4456C253.766 77.4456 253.566 77.341 253.448 77.158L230.004 40.9831C229.826 40.7101 229.886 40.3469 230.142 40.1465C230.394 39.9431 230.763 39.9693 230.988 40.2046L255.92 66.3276C256.054 66.4699 256.116 66.6646 256.087 66.8563L254.6 76.9081C254.562 77.1667 254.368 77.3759 254.11 77.431C254.065 77.4398 254.022 77.4456 253.977 77.4456ZM234.716 45.9364L253.598 75.0721L254.796 66.9754L234.716 45.9364Z" fill="white"/>
<path d="M100.467 12.4691C100.17 12.4691 99.9097 12.26 99.8501 11.9636C99.7862 11.6528 99.9663 11.3419 100.268 11.2403L131.68 0.784663C131.927 0.700415 132.208 0.781735 132.373 0.990928L138.278 8.45133C138.423 8.63434 138.455 8.88128 138.362 9.09627C138.269 9.30835 138.066 9.45365 137.835 9.47108L100.518 12.4663C100.501 12.4692 100.483 12.4691 100.467 12.4691ZM131.66 2.12098L105.599 10.7958L136.558 8.30898L131.66 2.12098Z" fill="white"/>
<path d="M137.784 9.47395C137.592 9.47395 137.409 9.38679 137.29 9.23573L131.386 1.77533C131.223 1.56905 131.204 1.28726 131.338 1.06066C131.471 0.839867 131.72 0.714965 131.985 0.761432L171.569 7.47521C171.889 7.5304 172.116 7.81805 172.092 8.14344C172.068 8.46592 171.802 8.71866 171.478 8.72737L137.799 9.474L137.784 9.47395ZM133.392 2.27792L138.083 8.20731L164.843 7.61466L133.392 2.27792Z" fill="white"/>
<path d="M230.532 41.2707C230.442 41.2707 230.35 41.2504 230.265 41.2097L198.609 26.3993C198.299 26.2569 198.161 25.8909 198.298 25.58L201.989 17.0767C202.067 16.8937 202.229 16.76 202.422 16.7135C202.615 16.6671 202.818 16.7164 202.971 16.8414L230.936 40.1551C231.178 40.3585 231.233 40.71 231.064 40.9773C230.944 41.1661 230.741 41.2707 230.532 41.2707ZM199.698 25.5191L226.386 38.0054L202.81 18.3492L199.698 25.5191Z" fill="white"/>
<path d="M198.876 26.4603C198.755 26.4603 198.636 26.4255 198.533 26.3586L171.12 8.62566C170.857 8.45716 170.76 8.11725 170.891 7.83255C171.022 7.55074 171.345 7.4084 171.642 7.49265L202.746 16.7223C202.919 16.7746 203.062 16.8966 203.138 17.0593C203.215 17.2249 203.216 17.4108 203.145 17.5764L199.454 26.0797C199.38 26.2512 199.236 26.379 199.059 26.4342C198.998 26.4516 198.937 26.4603 198.876 26.4603ZM175.484 9.9475L198.594 24.8974L201.706 17.7275L175.484 9.9475Z" fill="white"/>
<path d="M265.055 120.267C265.035 120.267 265.016 120.267 264.996 120.264C264.731 120.238 264.512 120.052 264.445 119.794L253.366 76.972C253.288 76.6699 253.445 76.3561 253.734 76.2341C254.017 76.1034 254.357 76.2195 254.517 76.4926L272.036 105.759C272.145 105.939 272.155 106.163 272.065 106.352L265.625 119.907C265.52 120.128 265.296 120.267 265.055 120.267ZM255.682 80.891L265.231 117.798L270.781 106.116L255.682 80.891Z" fill="white"/>
<path d="M274.369 147.073C274.105 147.073 273.864 146.908 273.774 146.649L264.46 119.843C264.406 119.686 264.415 119.515 264.486 119.367L270.927 105.811C271.052 105.553 271.328 105.408 271.612 105.463C271.894 105.515 272.105 105.75 272.125 106.038L274.998 146.399C275.02 146.713 274.806 146.997 274.496 147.059C274.453 147.07 274.411 147.073 274.369 147.073ZM265.735 119.675L273.403 141.742L271.037 108.516L265.735 119.675Z" fill="white"/>
<path d="M109.713 274.853C109.623 274.853 109.533 274.832 109.447 274.795L78.0063 260.132C77.7201 259.999 77.5763 259.673 77.6707 259.371C77.7637 259.072 78.0542 258.886 78.3781 258.938L115.105 265.173C115.311 265.208 115.488 265.344 115.574 265.536C115.66 265.728 115.645 265.951 115.533 266.129L110.247 274.556C110.128 274.745 109.924 274.853 109.713 274.853ZM82.7721 260.963L109.475 273.415L113.965 266.259L82.7721 260.963Z" fill="white"/>
<path d="M109.713 274.853C109.484 274.853 109.273 274.728 109.163 274.527C109.051 274.327 109.057 274.083 109.179 273.888L114.465 265.46C114.61 265.231 114.884 265.118 115.147 265.182L149.309 273.458C149.618 273.534 149.823 273.827 149.787 274.144C149.749 274.461 149.482 274.702 149.164 274.702L109.713 274.853ZM115.293 266.515L110.855 273.589L143.965 273.461L115.293 266.515Z" fill="white"/>
<path d="M10.7157 120.462C10.5138 120.462 10.3206 120.363 10.2015 120.195L2.77591 109.687C2.63645 109.489 2.62195 109.231 2.73815 109.022L19.251 78.8923C19.4006 78.6192 19.7317 78.5001 20.0251 78.6047C20.3186 78.7151 20.4871 79.0259 20.4174 79.331L11.3301 119.968C11.2763 120.212 11.0831 120.401 10.8391 120.45C10.7984 120.459 10.7563 120.462 10.7157 120.462ZM4.03239 109.28L10.4106 118.309L18.2167 83.4011L4.03239 109.28Z" fill="white"/>
<path d="M1.20136 147.073C1.1607 147.073 1.11857 147.07 1.07644 147.061C0.769941 146.998 0.554967 146.719 0.572399 146.408L2.6612 109.289C2.67571 109.022 2.85876 108.792 3.11585 108.716C3.3744 108.65 3.65189 108.74 3.80441 108.96L11.2299 119.468C11.349 119.637 11.3781 119.849 11.3098 120.044L1.79551 146.655C1.704 146.91 1.46282 147.073 1.20136 147.073ZM3.81744 111.163L2.07581 142.126L10.0127 119.927L3.81744 111.163Z" fill="white"/>
<path d="M187.304 262.608C187.077 262.608 186.861 262.486 186.749 262.276C186.603 262.006 186.673 261.672 186.914 261.48L220.581 235C220.793 234.837 221.089 234.823 221.317 234.971C221.544 235.119 221.65 235.398 221.578 235.66L217.06 252.437C217.004 252.643 216.85 252.806 216.65 252.873L187.503 262.576C187.437 262.596 187.37 262.608 187.304 262.608ZM219.867 237.164L190.536 260.237L215.931 251.783L219.867 237.164Z" fill="white"/>
<path d="M216.45 252.904C216.344 252.904 216.238 252.878 216.141 252.823C215.89 252.681 215.766 252.387 215.842 252.111L220.361 235.334C220.406 235.166 220.519 235.023 220.673 234.942L244.228 222.377C244.497 222.226 244.84 222.305 245.027 222.552C245.214 222.798 245.194 223.144 244.979 223.368L216.905 252.71C216.783 252.838 216.618 252.904 216.45 252.904ZM221.507 235.924L217.701 250.055L241.348 225.34L221.507 235.924Z" fill="white"/>
<path d="M19.8033 79.8249C19.6755 79.8249 19.5462 79.7871 19.4358 79.7057C19.1816 79.5256 19.1003 79.1828 19.2426 78.9039L36.4047 45.6662C36.5543 45.3786 36.903 45.2508 37.2008 45.3728L47.9047 49.6956C48.0994 49.7741 48.2417 49.9426 48.2853 50.1488C48.3289 50.3522 48.2679 50.5672 48.1226 50.7182L20.2565 79.6332C20.1345 79.7581 19.9689 79.8249 19.8033 79.8249ZM37.2618 46.7556L22.341 75.6531L46.5684 50.5149L37.2618 46.7556Z" fill="white"/>
<path d="M47.6697 50.91C47.5898 50.91 47.5099 50.8954 47.4344 50.8635L36.7304 46.5407C36.5183 46.4564 36.3687 46.2618 36.3411 46.0352C36.312 45.8086 36.4079 45.5849 36.5909 45.4484L65.6089 24.0229C65.8587 23.8428 66.2016 23.866 66.4253 24.081C66.6461 24.2989 66.6765 24.6446 66.4978 24.8973L48.1838 50.6456C48.0618 50.8141 47.8687 50.91 47.6697 50.91ZM38.2468 45.794L47.4445 49.5097L63.1817 27.3841L38.2468 45.794Z" fill="white"/>
<path d="M46.8341 243.274C46.6337 243.274 46.4434 243.178 46.3243 243.015L27.0733 216.628C26.8947 216.381 26.9165 216.041 27.1285 215.82C27.3406 215.6 27.6791 215.562 27.9333 215.733L53.0918 232.528C53.3736 232.714 53.4564 233.091 53.2777 233.382L47.3701 242.975C47.2612 243.152 47.068 243.265 46.8588 243.274H46.8341ZM30.1818 218.749L46.7905 241.513L51.8862 233.237L30.1818 218.749Z" fill="white"/>
<path d="M78.2721 260.191C78.1705 260.191 78.0673 260.167 77.9729 260.115L46.5349 243.198C46.3824 243.117 46.2705 242.975 46.2255 242.806C46.1805 242.641 46.2067 242.46 46.2982 242.312L52.2058 232.72C52.3074 232.554 52.4803 232.446 52.6749 232.423C52.8739 232.4 53.0613 232.473 53.1964 232.615L78.7268 259.124C78.9417 259.345 78.9621 259.694 78.7747 259.941C78.6512 260.103 78.4639 260.191 78.2721 260.191ZM47.7217 242.405L75.0257 257.097L52.8522 234.073L47.7217 242.405Z" fill="white"/>
<path d="M260.997 160.78C260.907 160.78 260.816 160.759 260.731 160.721C260.489 160.608 260.343 160.353 260.37 160.085L264.428 119.573C264.459 119.28 264.688 119.044 264.982 119.012C265.266 118.98 265.552 119.152 265.651 119.431L274.965 146.236C275.043 146.46 274.987 146.713 274.821 146.881L261.449 160.588C261.327 160.713 261.163 160.78 260.997 160.78ZM265.398 122.542L261.803 158.421L273.646 146.283L265.398 122.542Z" fill="white"/>
<path d="M265.329 184.395H265.311C265.013 184.387 264.762 184.172 264.708 183.878L260.377 160.262C260.34 160.062 260.403 159.856 260.545 159.71L273.918 146.004C274.115 145.798 274.427 145.754 274.674 145.891C274.923 146.027 275.049 146.315 274.982 146.591L265.942 183.913C265.872 184.198 265.619 184.395 265.329 184.395ZM261.675 160.355L265.414 180.735L273.216 148.529L261.675 160.355Z" fill="white"/>
<path d="M14.5739 160.78C14.4084 160.78 14.2442 160.713 14.1222 160.588L0.749828 146.881C0.58279 146.71 0.527572 146.457 0.607477 146.231L10.1218 119.62C10.222 119.341 10.4966 119.166 10.7943 119.207C11.0863 119.242 11.3158 119.477 11.3434 119.771L15.2015 160.088C15.2261 160.355 15.0809 160.608 14.8398 160.721C14.7541 160.759 14.664 160.78 14.5739 160.78ZM1.92786 146.283L13.7765 158.429L10.3571 122.705L1.92786 146.283Z" fill="white"/>
<path d="M9.50154 183.643C9.20667 183.643 8.95246 183.44 8.8871 183.152L0.587116 146.582C0.524644 146.306 0.65247 146.024 0.900871 145.888C1.1449 145.757 1.45431 145.801 1.6533 146.004L15.0257 159.71C15.1738 159.861 15.2349 160.079 15.1899 160.286L10.1175 183.149C10.0536 183.437 9.79641 183.643 9.50154 183.643ZM2.31132 148.482L9.49428 180.134L13.8854 160.347L2.31132 148.482Z" fill="white"/>
<path d="M244.524 223.563C244.469 223.563 244.412 223.554 244.356 223.539C244.071 223.461 243.879 223.194 243.895 222.9L245.155 198.726C245.163 198.541 245.253 198.372 245.4 198.259L264.944 183.265C265.18 183.085 265.51 183.091 265.735 183.283C265.961 183.474 266.024 183.8 265.884 184.061L245.081 223.228C244.969 223.438 244.752 223.563 244.524 223.563ZM246.398 199.081L245.301 220.126L263.412 186.028L246.398 199.081Z" fill="white"/>
<path d="M220.97 236.127C220.796 236.127 220.624 236.055 220.502 235.918C220.307 235.703 220.286 235.384 220.447 235.145L245.261 198.407C245.421 198.172 245.711 198.079 245.985 198.16C246.253 198.25 246.428 198.509 246.413 198.79L245.154 222.964C245.142 223.185 245.016 223.385 244.821 223.487L221.266 236.052C221.173 236.104 221.072 236.127 220.97 236.127ZM245.036 200.99L222.913 233.745L243.913 222.543L245.036 200.99Z" fill="white"/>
<path d="M245.784 199.389C245.651 199.389 245.517 199.345 245.405 199.261C245.178 199.093 245.094 198.79 245.197 198.526L260.41 159.917C260.515 159.655 260.785 159.49 261.058 159.522C261.338 159.548 261.566 159.76 261.617 160.036L265.949 183.652C265.991 183.884 265.899 184.122 265.712 184.265L246.168 199.258C246.054 199.345 245.919 199.389 245.784 199.389ZM260.775 162.433L247.203 196.876L264.639 183.501L260.775 162.433Z" fill="white"/>
<path d="M149.161 274.702C148.993 274.702 148.829 274.635 148.709 274.51C148.543 274.342 148.487 274.092 148.565 273.865L153.164 260.577C153.255 260.315 153.495 260.182 153.781 260.153L187.325 261.347C187.632 261.358 187.886 261.588 187.928 261.893C187.969 262.195 187.786 262.486 187.494 262.579L149.351 274.673C149.288 274.693 149.224 274.702 149.161 274.702ZM154.202 261.431L150.167 273.092L183.64 262.477L154.202 261.431Z" fill="white"/>
<path d="M149.16 274.702C149.111 274.702 149.062 274.696 149.012 274.684L114.851 266.408C114.556 266.335 114.352 266.065 114.37 265.76C114.386 265.458 114.617 265.208 114.917 265.17L153.678 260.159C153.903 260.132 154.111 260.217 154.249 260.385C154.385 260.554 154.426 260.783 154.355 260.989L149.756 274.278C149.666 274.536 149.423 274.702 149.16 274.702ZM118.454 265.983L148.752 273.325L152.831 261.539L118.454 265.983Z" fill="white"/>
<path d="M29.6807 196.827C29.5615 196.827 29.441 196.792 29.3364 196.725L9.15729 183.541C8.9365 183.396 8.82902 183.132 8.88566 182.876L13.958 160.013C14.0176 159.745 14.2442 159.545 14.5173 159.522C14.8078 159.495 15.0489 159.652 15.155 159.905L30.2617 195.952C30.3692 196.208 30.2966 196.504 30.0845 196.681C29.9683 196.777 29.8245 196.827 29.6807 196.827ZM10.2119 182.722L28.3051 194.546L14.7599 162.223L10.2119 182.722Z" fill="white"/>
<path d="M27.5831 216.887C27.355 216.887 27.1415 216.762 27.0296 216.558L8.94804 183.315C8.81004 183.059 8.86234 182.745 9.07441 182.551C9.28503 182.353 9.60459 182.33 9.84573 182.484L30.0248 195.667C30.2224 195.798 30.3314 196.028 30.3081 196.263L28.2106 216.323C28.1815 216.596 27.9767 216.82 27.7065 216.875C27.6659 216.884 27.6237 216.887 27.5831 216.887ZM11.2489 184.907L27.1676 214.173L29.0138 196.513L11.2489 184.907Z" fill="white"/>
<path d="M52.7415 233.681C52.6194 233.681 52.4989 233.646 52.3914 233.574L27.2329 216.779C27.0382 216.651 26.9322 216.425 26.9554 216.189L29.0529 196.129C29.082 195.862 29.2766 195.644 29.5381 195.583C29.8068 195.522 30.0727 195.635 30.215 195.862L53.276 232.717C53.4329 232.969 53.3937 233.295 53.1801 233.504C53.0596 233.62 52.9012 233.681 52.7415 233.681ZM28.2497 215.942L50.6498 230.898L30.1163 198.082L28.2497 215.942Z" fill="white"/>
<path d="M253.977 77.4456C253.843 77.4456 253.709 77.402 253.596 77.3177L223.714 54.7012C223.475 54.5211 223.397 54.1986 223.525 53.9284L229.963 40.3701C230.061 40.1638 230.263 40.0273 230.49 40.0128C230.744 39.9663 230.937 40.1057 231.061 40.2975L254.505 76.4723C254.672 76.728 254.63 77.0679 254.405 77.277C254.286 77.3874 254.131 77.4456 253.977 77.4456ZM224.883 54.0069L251.497 74.1482L230.618 41.9302L224.883 54.0069Z" fill="white"/>
<path d="M224.094 54.829C223.916 54.829 223.744 54.7535 223.624 54.6169L198.406 26.2482C198.207 26.0245 198.192 25.6934 198.371 25.4522C198.549 25.214 198.875 25.1327 199.144 25.2605L230.799 40.0709C230.95 40.1406 231.068 40.2685 231.125 40.4283C231.181 40.5851 231.173 40.7595 231.102 40.9105L224.664 54.4688C224.574 54.6606 224.392 54.7913 224.183 54.8233C224.154 54.8262 224.123 54.829 224.094 54.829ZM201.379 27.6979L223.933 53.0685L229.691 40.9424L201.379 27.6979Z" fill="white"/>
<path d="M47.6697 50.91C47.4924 50.91 47.3182 50.8345 47.1947 50.695C47.0029 50.4742 46.987 50.1518 47.1555 49.9135L65.4695 24.1653C65.6423 23.9212 65.9604 23.8283 66.2393 23.9561L82.9395 31.3845C83.1603 31.4833 83.3056 31.6983 83.3143 31.9394C83.3215 32.1805 83.1908 32.4071 82.9758 32.5175L47.9616 50.8374C47.8687 50.8867 47.7684 50.91 47.6697 50.91ZM66.1987 25.3157L49.7076 48.5016L81.2371 32.0062L66.1987 25.3157Z" fill="white"/>
<path d="M82.6833 32.5901C82.5961 32.5901 82.509 32.5727 82.4276 32.535L65.7274 25.1066C65.4921 25.002 65.3454 24.7666 65.3527 24.511C65.3614 24.2553 65.5241 24.0287 65.7652 23.9387L100.249 11.2461C100.518 11.1444 100.823 11.2461 100.987 11.4843C101.15 11.7226 101.131 12.0392 100.939 12.2571L83.1554 32.3781C83.0333 32.5147 82.8605 32.5901 82.6833 32.5901ZM67.6579 24.5865L82.5177 31.1957L98.3406 13.2942L67.6579 24.5865Z" fill="white"/>
<path d="M198.876 26.4603C198.857 26.4603 198.838 26.4603 198.82 26.4574L164.453 23.3344C164.247 23.317 164.064 23.1979 163.962 23.0177C163.861 22.8405 163.852 22.6226 163.94 22.4367L170.894 7.82676C170.972 7.66118 171.118 7.53915 171.292 7.48976C171.465 7.44618 171.654 7.46941 171.806 7.5682L199.219 25.3012C199.462 25.4581 199.566 25.7603 199.472 26.0362C199.383 26.2919 199.144 26.4603 198.876 26.4603ZM165.467 22.1607L196.388 24.97L171.723 9.01501L165.467 22.1607Z" fill="white"/>
<path d="M164.51 23.3373C164.41 23.3373 164.311 23.3141 164.219 23.2676L137.494 9.40421C137.238 9.27057 137.106 8.98005 137.17 8.70116C137.235 8.41935 137.482 8.2189 137.77 8.2131L171.449 7.46648H171.463C171.677 7.46648 171.876 7.57396 171.992 7.75409C172.111 7.9371 172.126 8.16954 172.033 8.36707L165.079 22.977C165.005 23.131 164.873 23.2501 164.71 23.3053C164.645 23.3257 164.578 23.3373 164.51 23.3373ZM140.262 9.41878L164.221 21.847L170.455 8.75059L140.262 9.41878Z" fill="white"/>
<path d="M10.7159 120.462C10.6302 120.462 10.543 120.445 10.4602 120.407C10.1857 120.285 10.0346 119.986 10.1014 119.695L19.1887 79.0579C19.2337 78.8516 19.379 78.6832 19.5765 78.6076C19.7683 78.5263 19.992 78.5582 20.1663 78.6802L33.3425 87.9592C33.4791 88.0551 33.5721 88.2003 33.6011 88.3659C33.6287 88.5315 33.5909 88.7029 33.4936 88.8395L11.2301 120.198C11.108 120.366 10.9149 120.462 10.7159 120.462ZM20.2128 80.2519L12.0145 116.915L32.0991 88.6245L20.2128 80.2519Z" fill="white"/>
<path d="M32.9796 89.1039C32.8517 89.1039 32.7239 89.0632 32.6164 88.9877L19.4402 79.7087C19.2906 79.6041 19.1932 79.4385 19.1758 79.2555C19.1584 79.0725 19.2222 78.8895 19.3501 78.7558L47.2162 49.8409C47.4225 49.6288 47.7522 49.5853 48.0078 49.748C48.2606 49.9077 48.3652 50.2273 48.2577 50.5062L33.5678 88.7001C33.4981 88.8802 33.3485 89.0197 33.1626 89.0778C33.103 89.0952 33.0406 89.1039 32.9796 89.1039ZM20.7678 79.1015L32.6818 87.4915L45.9641 52.9581L20.7678 79.1015Z" fill="white"/>
<path d="M78.2722 260.191C78.1023 260.191 77.9381 260.121 77.8176 259.996L52.2872 233.486C52.0882 233.28 52.0548 232.966 52.2044 232.722C52.3555 232.478 52.6547 232.365 52.9249 232.446L84.5706 242.089C84.7362 242.141 84.8742 242.257 84.9512 242.411C85.0282 242.565 85.0383 242.745 84.9802 242.908L78.8649 259.775C78.7908 259.978 78.6166 260.132 78.4031 260.176C78.3595 260.185 78.3158 260.191 78.2722 260.191ZM54.8786 234.361L78.0238 258.395L83.5683 243.102L54.8786 234.361Z" fill="white"/>
<path d="M114.999 266.425C114.964 266.425 114.929 266.422 114.893 266.416L78.1664 260.182C77.9834 260.15 77.8221 260.04 77.7277 259.877C77.6333 259.717 77.6159 259.522 77.6798 259.345L83.7951 242.478C83.8634 242.289 84.0173 242.147 84.2091 242.089C84.3979 242.033 84.6071 242.068 84.7668 242.19L115.378 265.292C115.611 265.466 115.694 265.777 115.577 266.044C115.477 266.277 115.248 266.425 114.999 266.425ZM79.1222 259.066L112.556 264.74L84.6899 243.71L79.1222 259.066Z" fill="white"/>
<path d="M265.055 120.267C264.863 120.267 264.678 120.18 264.554 120.02L243.137 91.9974C242.972 91.7795 242.965 91.4774 243.121 91.2537L253.459 76.4549C253.6 76.2515 253.84 76.1353 254.088 76.1963C254.331 76.2399 254.526 76.4201 254.587 76.6583L265.665 119.48C265.741 119.771 265.6 120.073 265.331 120.203C265.243 120.247 265.148 120.267 265.055 120.267ZM244.419 91.5965L263.665 116.781L253.709 78.2996L244.419 91.5965Z" fill="white"/>
<path d="M243.638 92.2443C243.625 92.2443 243.611 92.2443 243.598 92.2414C243.378 92.2298 243.182 92.102 243.079 91.9044L223.535 54.4891C223.398 54.2277 223.462 53.9081 223.687 53.7163C223.911 53.5275 224.239 53.5188 224.474 53.696L254.357 76.3125C254.627 76.5159 254.686 76.8993 254.493 77.1753L244.155 91.9741C244.036 92.1455 243.843 92.2443 243.638 92.2443ZM225.953 56.3949L243.717 90.4025L253.112 76.9517L225.953 56.3949Z" fill="white"/>
<path d="M120.633 25.6469C120.382 25.6469 120.154 25.4958 120.054 25.2634C119.95 25.0223 120.009 24.7405 120.2 24.5575L137.351 8.38455C137.547 8.19862 137.839 8.16376 138.074 8.28287L164.8 22.1462C165.053 22.2798 165.185 22.5617 165.125 22.8406C165.066 23.1195 164.826 23.3199 164.543 23.3373L120.667 25.6469L120.633 25.6469ZM137.891 9.60761L122.315 24.296L162.162 22.1985L137.891 9.60761Z" fill="white"/>
<path d="M82.6832 32.5902C82.4581 32.5902 82.2475 32.4711 82.1342 32.2706C82.002 32.0353 82.0325 31.7448 82.2111 31.5414L99.995 11.4204C100.201 11.1851 100.551 11.1415 100.811 11.31L120.977 24.4877C121.194 24.6301 121.301 24.8887 121.25 25.1414C121.2 25.3942 121.001 25.5888 120.746 25.6353L82.7965 32.5786C82.7588 32.5873 82.721 32.5902 82.6832 32.5902ZM100.579 12.6638L84.3624 31.0127L118.967 24.6795L100.579 12.6638Z" fill="white"/>
<path d="M120.633 25.6469C120.514 25.6469 120.394 25.612 120.289 25.5452L100.123 12.3675C99.8963 12.2193 99.7902 11.9433 99.857 11.6819C99.9224 11.4233 100.148 11.2316 100.416 11.2112L137.733 8.21605C138.032 8.17827 138.25 8.34388 138.36 8.5879C138.468 8.83193 138.411 9.11951 138.217 9.30252L121.066 25.4754C120.945 25.5888 120.79 25.6469 120.633 25.6469ZM102.356 12.3181L120.562 24.2176L136.046 9.61632L102.356 12.3181Z" fill="white"/>
<path d="M187.303 262.608H187.281L153.737 261.414C153.453 261.402 153.21 261.204 153.145 260.926C153.081 260.65 153.21 260.362 153.461 260.228L190.787 240.174C190.997 240.061 191.26 240.078 191.455 240.218C191.649 240.36 191.747 240.601 191.705 240.839L187.924 262.088C187.87 262.39 187.608 262.608 187.303 262.608ZM156.109 260.237L186.779 261.326L190.236 241.9L156.109 260.237Z" fill="white"/>
<path d="M187.304 262.608C187.192 262.608 187.08 262.579 186.98 262.518C186.755 262.384 186.637 262.125 186.683 261.867L190.464 240.619C190.511 240.357 190.716 240.154 190.976 240.107L220.861 234.875C221.14 234.826 221.427 234.974 221.545 235.241C221.663 235.503 221.587 235.813 221.359 235.994L187.693 262.474C187.58 262.561 187.442 262.608 187.304 262.608ZM191.628 241.272L188.214 260.461L218.612 236.548L191.628 241.272Z" fill="white"/>
<path d="M247.291 135.563C247.212 135.563 247.13 135.548 247.053 135.516C246.834 135.426 246.683 135.22 246.664 134.985L243.011 91.6662C242.986 91.3873 243.15 91.1259 243.412 91.0271C243.673 90.9255 243.969 91.0097 244.139 91.2305L265.556 119.254C265.758 119.521 265.719 119.896 265.466 120.113L247.703 135.409C247.586 135.511 247.44 135.563 247.291 135.563ZM244.447 93.7115L247.816 133.648L264.194 119.547L244.447 93.7115Z" fill="white"/>
<path d="M260.997 160.78C260.769 160.78 260.555 160.655 260.443 160.451L246.738 135.235C246.596 134.973 246.656 134.648 246.881 134.456L264.644 119.161C264.836 118.989 265.118 118.954 265.346 119.079C265.575 119.198 265.708 119.442 265.683 119.701L261.624 160.213C261.597 160.486 261.392 160.713 261.122 160.768C261.08 160.777 261.038 160.78 260.997 160.78ZM248.088 135.078L260.574 158.052L264.271 121.145L248.088 135.078Z" fill="white"/>
<path d="M29.4334 132.693C29.3128 132.693 29.1923 132.658 29.0892 132.591L10.3714 120.36C10.2276 120.264 10.1288 120.116 10.0968 119.948C10.0648 119.779 10.1026 119.608 10.2014 119.466L32.465 88.1074C32.6277 87.875 32.9298 87.7762 33.1942 87.8808C33.4614 87.9796 33.6299 88.241 33.6067 88.5258L30.061 132.114C30.0435 132.335 29.9099 132.53 29.7109 132.629C29.6223 132.672 29.5278 132.693 29.4334 132.693ZM11.6089 119.663L28.8916 130.955L32.1657 90.7075L11.6089 119.663Z" fill="white"/>
<path d="M14.5741 160.78C14.5335 160.78 14.4928 160.777 14.4521 160.768C14.179 160.713 13.9728 160.486 13.9466 160.21L10.0886 119.893C10.0654 119.651 10.183 119.416 10.3907 119.291C10.597 119.166 10.857 119.172 11.0604 119.303L29.7781 131.533C30.0512 131.714 30.1427 132.068 29.9902 132.356L15.1319 160.443C15.02 160.652 14.8051 160.78 14.5741 160.78ZM11.4685 121.075L15.0012 157.994L28.6074 132.274L11.4685 121.075Z" fill="white"/>
<path d="M224.094 54.829C224.044 54.829 223.993 54.8232 223.94 54.8087L189.042 46.0497C188.858 46.0032 188.704 45.8782 188.624 45.7039C188.544 45.5325 188.547 45.3321 188.631 45.1607L198.311 25.551C198.404 25.3621 198.584 25.2343 198.792 25.2053C199.006 25.1849 199.209 25.2546 199.347 25.4115L224.565 53.7802C224.749 53.9865 224.777 54.2886 224.633 54.524C224.517 54.7157 224.311 54.829 224.094 54.829ZM190.107 45.0184L222.266 53.0889L199.027 26.9484L190.107 45.0184Z" fill="white"/>
<path d="M189.196 46.07C189.04 46.07 188.887 46.012 188.769 45.9045L164.083 23.1717C163.884 22.9887 163.824 22.6982 163.933 22.4513C164.042 22.2043 164.301 22.0329 164.567 22.0794L198.933 25.2024C199.141 25.2198 199.325 25.3419 199.425 25.522C199.527 25.7021 199.533 25.9229 199.441 26.1088L189.762 45.7185C189.674 45.8958 189.507 46.0236 189.311 46.0584C189.273 46.0672 189.234 46.07 189.196 46.07ZM166.305 23.5029L189.005 44.4054L197.905 26.3732L166.305 23.5029Z" fill="white"/>
<path d="M114.999 266.425C114.864 266.425 114.73 266.381 114.62 266.297L84.0084 243.195C83.7877 243.03 83.7005 242.739 83.7949 242.478C83.8908 242.219 84.1159 242.086 84.4195 242.062L120.125 243.84C120.311 243.852 120.485 243.942 120.597 244.093C120.711 244.241 120.75 244.436 120.706 244.616L115.612 265.94C115.563 266.149 115.412 266.315 115.213 266.387C115.143 266.413 115.07 266.425 114.999 266.425ZM86.4023 243.425L114.61 264.711L119.304 245.063L86.4023 243.425Z" fill="white"/>
<path d="M114.999 266.425C114.822 266.425 114.65 266.349 114.53 266.216C114.392 266.062 114.338 265.85 114.386 265.649L119.48 244.326C119.525 244.14 119.65 243.983 119.823 243.901C119.997 243.817 120.196 243.817 120.368 243.904L154.034 260.217C154.285 260.339 154.426 260.609 154.381 260.885C154.336 261.161 154.117 261.373 153.841 261.408L115.08 266.419C115.053 266.422 115.025 266.425 114.999 266.425ZM120.525 245.38L115.824 265.054L151.583 260.429L120.525 245.38Z" fill="white"/>
<path d="M220.969 236.127C220.924 236.127 220.879 236.121 220.833 236.113C220.582 236.058 220.388 235.851 220.348 235.596L216.005 208.569C215.955 208.264 216.134 207.971 216.427 207.872L245.585 198.16C245.839 198.079 246.122 198.16 246.286 198.378C246.449 198.593 246.458 198.886 246.307 199.11L221.492 235.848C221.373 236.026 221.176 236.127 220.969 236.127ZM217.334 208.9L221.338 233.823L244.224 199.944L217.334 208.9Z" fill="white"/>
<path d="M191.085 241.359C190.865 241.359 190.658 241.243 190.543 241.051C190.409 240.828 190.428 240.543 190.591 240.337L216.133 208.078C216.288 207.886 216.541 207.799 216.787 207.86C217.028 207.924 217.209 208.125 217.248 208.372L221.592 235.398C221.647 235.738 221.419 236.058 221.079 236.119L191.194 241.351C191.157 241.357 191.121 241.359 191.085 241.359ZM216.232 209.984L192.606 239.823L220.249 234.983L216.232 209.984Z" fill="white"/>
<path d="M32.9797 89.1039C32.8476 89.1039 32.7153 89.0632 32.6035 88.979C32.3769 88.8105 32.2898 88.5113 32.3914 88.2469L47.0813 50.053C47.1496 49.8758 47.2948 49.7392 47.4764 49.6811C47.6536 49.623 47.8555 49.6463 48.0138 49.7509L66.7317 61.9844C66.9031 62.0977 67.0091 62.2837 67.0178 62.487C67.0251 62.6904 66.935 62.8851 66.7738 63.01L33.3661 88.9703C33.2528 89.0603 33.1163 89.1039 32.9797 89.1039ZM47.9775 51.2325L34.38 86.5881L65.3038 62.5568L47.9775 51.2325Z" fill="white"/>
<path d="M66.3868 63.1435C66.2648 63.1435 66.1457 63.1087 66.0426 63.0419L47.3247 50.8083C47.1373 50.6834 47.0284 50.4713 47.04 50.2505C47.0502 50.0268 47.178 49.8235 47.377 49.7218L82.3912 31.402C82.6338 31.2713 82.936 31.3178 83.1306 31.5153C83.3253 31.7129 83.3689 32.0121 83.2396 32.2561L66.9432 62.8095C66.8604 62.9664 66.7151 63.0797 66.5437 63.1233C66.4914 63.1378 66.4391 63.1435 66.3868 63.1435ZM48.9138 50.3406L66.1544 61.6096L81.1667 33.4646L48.9138 50.3406Z" fill="white"/>
<path d="M84.3874 243.323C84.3264 243.323 84.2639 243.315 84.2044 243.297L52.5587 233.655C52.2318 233.553 52.043 233.213 52.1345 232.885L58.8396 208.43C58.9035 208.194 59.0952 208.02 59.332 207.976C59.5789 207.921 59.8143 208.026 59.9552 208.223L84.8958 242.321C85.0556 242.539 85.0585 242.835 84.9016 243.059C84.781 243.227 84.5878 243.323 84.3874 243.323ZM53.5115 232.627L82.762 241.54L59.7097 210.022L53.5115 232.627Z" fill="white"/>
<path d="M52.7417 233.681C52.5267 233.681 52.3234 233.571 52.2071 233.385L29.1461 196.53C29.0009 196.298 29.0227 195.999 29.1999 195.789C29.3756 195.577 29.672 195.502 29.9233 195.615L59.6893 208.014C59.9813 208.136 60.1382 208.456 60.0539 208.761L53.3489 233.216C53.2835 233.457 53.0801 233.638 52.8332 233.675C52.8027 233.678 52.7722 233.681 52.7417 233.681ZM31.264 197.538L52.5136 231.499L58.6929 208.964L31.264 197.538Z" fill="white"/>
<path d="M39.9967 172.432C39.908 172.432 39.818 172.412 39.7337 172.374L14.3109 160.721C14.154 160.649 14.0334 160.515 13.9768 160.353C13.9216 160.187 13.9361 160.007 14.016 159.856L28.8758 131.769C28.9978 131.539 29.2593 131.438 29.5048 131.435C29.7633 131.467 29.9754 131.65 30.0422 131.9L40.6053 171.639C40.6678 171.874 40.5893 172.127 40.4034 172.284C40.2872 172.38 40.1419 172.432 39.9967 172.432ZM15.4424 159.853L39.0438 170.672L29.2374 133.779L15.4424 159.853Z" fill="white"/>
<path d="M29.6805 196.826C29.4277 196.826 29.1967 196.673 29.0994 196.44L13.9927 160.393C13.8925 160.152 13.9491 159.876 14.135 159.696C14.3224 159.516 14.5984 159.469 14.8366 159.577L40.2595 171.229C40.5689 171.372 40.7098 171.732 40.5776 172.046L30.2615 196.44C30.1627 196.675 29.9332 196.826 29.6805 196.826ZM15.7794 161.395L29.6834 194.572L39.1774 172.118L15.7794 161.395Z" fill="white"/>
<path d="M59.4469 209.226C59.3656 209.226 59.2828 209.211 59.2043 209.176L29.4383 196.777C29.2843 196.713 29.1608 196.591 29.0969 196.434C29.0344 196.28 29.0344 196.106 29.0998 195.952L39.416 171.558C39.5119 171.331 39.7268 171.183 39.9694 171.171C40.2251 171.148 40.44 171.29 40.5548 171.508L60.0047 208.302C60.1282 208.537 60.0919 208.825 59.9132 209.019C59.7912 209.153 59.6198 209.226 59.4469 209.226ZM30.5088 195.859L58.0699 207.34L40.0609 173.269L30.5088 195.859Z" fill="white"/>
<path d="M245.784 199.389H245.779C245.519 199.386 245.287 199.226 245.194 198.982L234.984 172.025C234.866 171.714 235.01 171.366 235.311 171.229L260.734 159.577C260.97 159.469 261.242 159.519 261.429 159.69C261.617 159.867 261.678 160.14 261.583 160.381L246.371 198.991C246.275 199.229 246.042 199.389 245.784 199.389ZM236.371 172.13L245.795 197.01L259.836 161.375L236.371 172.13Z" fill="white"/>
<path d="M216.627 209.101C216.445 209.101 216.269 209.022 216.147 208.88C215.982 208.685 215.95 208.409 216.067 208.18L235.015 171.511C235.127 171.29 235.368 171.18 235.61 171.171C235.859 171.186 236.075 171.346 236.164 171.578L246.374 198.535C246.435 198.695 246.428 198.875 246.354 199.029C246.279 199.183 246.146 199.302 245.983 199.357L216.826 209.069C216.76 209.089 216.694 209.101 216.627 209.101ZM235.485 173.347L217.898 207.384L244.962 198.369L235.485 173.347Z" fill="white"/>
<path d="M235.574 172.432C235.423 172.432 235.273 172.377 235.156 172.272C234.97 172.11 234.899 171.848 234.974 171.61L246.692 134.741C246.768 134.5 246.981 134.328 247.232 134.305C247.484 134.256 247.725 134.41 247.845 134.63L261.55 159.847C261.635 160.001 261.651 160.184 261.595 160.35C261.54 160.515 261.418 160.649 261.26 160.721L235.837 172.374C235.753 172.412 235.663 172.432 235.574 172.432ZM247.445 136.533L236.605 170.637L260.121 159.859L247.445 136.533Z" fill="white"/>
<path d="M153.759 261.414C153.631 261.414 153.505 261.376 153.396 261.297C153.201 261.161 153.101 260.926 153.136 260.69L156.512 238.146C156.561 237.821 156.84 237.568 157.181 237.612L191.131 240.102C191.41 240.122 191.642 240.322 191.7 240.598C191.76 240.871 191.629 241.15 191.382 241.284L154.057 261.338C153.964 261.387 153.861 261.414 153.759 261.414ZM157.672 238.91L154.568 259.633L188.878 241.2L157.672 238.91Z" fill="white"/>
<path d="M153.76 261.414C153.665 261.414 153.572 261.393 153.485 261.35L119.819 245.037C119.572 244.918 119.431 244.654 119.47 244.381C119.508 244.111 119.719 243.896 119.989 243.849L157.031 237.618C157.228 237.58 157.432 237.65 157.577 237.789C157.721 237.931 157.789 238.132 157.758 238.332L154.383 260.876C154.354 261.074 154.232 261.248 154.053 261.341C153.961 261.39 153.861 261.414 153.76 261.414ZM122.146 244.764L153.263 259.842L156.383 239.006L122.146 244.764Z" fill="white"/>
<path d="M189.196 46.07H189.158L147.426 43.5832C147.188 43.5687 146.979 43.4205 146.884 43.2027C146.791 42.9819 146.828 42.7291 146.982 42.5461L164.028 22.3002C164.138 22.1695 164.298 22.0881 164.471 22.0765C164.632 22.0823 164.81 22.1259 164.937 22.2421L189.623 44.9748C189.819 45.1578 189.88 45.4396 189.776 45.6866C189.677 45.919 189.448 46.07 189.196 46.07ZM148.755 42.3979L187.469 44.7046L164.568 23.6162L148.755 42.3979Z" fill="white"/>
<path d="M147.464 43.5832C147.343 43.5832 147.221 43.5484 147.114 43.4757L120.283 25.5394C120.058 25.3883 119.953 25.1124 120.026 24.848C120.097 24.5865 120.33 24.4006 120.6 24.3861L164.476 22.0765C164.769 22.0939 164.963 22.2014 165.073 22.4251C165.185 22.6517 165.153 22.9219 164.992 23.1137L147.946 43.3595C147.822 43.5048 147.644 43.5832 147.464 43.5832ZM122.559 25.5452L147.345 42.1161L163.092 23.4128L122.559 25.5452Z" fill="white"/>
<path d="M243.639 92.2444C243.546 92.2444 243.452 92.224 243.364 92.1804L209.698 75.8768C209.534 75.7983 209.412 75.6502 209.364 75.4759C209.316 75.2987 209.348 75.1127 209.448 74.9588L223.57 53.8471C223.695 53.6641 223.925 53.5595 224.128 53.5682C224.35 53.5827 224.551 53.7105 224.654 53.9081L244.198 91.3234C244.323 91.5645 244.281 91.858 244.091 92.0526C243.97 92.1775 243.806 92.2444 243.639 92.2444ZM210.899 75.0575L242.198 90.2166L224.028 55.4333L210.899 75.0575Z" fill="white"/>
<path d="M209.972 75.9407C209.766 75.9407 209.573 75.839 209.455 75.6705L188.679 45.7999C188.529 45.5849 188.528 45.2973 188.678 45.0823C188.826 44.8644 189.093 44.7511 189.35 44.8295L224.248 53.5885C224.447 53.6379 224.608 53.7803 224.682 53.972C224.756 54.1638 224.732 54.3788 224.619 54.5502L210.497 75.6619C210.38 75.8333 210.186 75.9378 209.978 75.9407L209.972 75.9407ZM190.673 46.4593L209.962 74.1918L223.073 54.5908L190.673 46.4593Z" fill="white"/>
<path d="M104.781 50.5207C104.572 50.5207 104.373 50.4161 104.256 50.236C104.119 50.0297 104.116 49.7625 104.25 49.5504L120.102 24.6766C120.193 24.5342 120.338 24.4355 120.504 24.4006C120.667 24.3687 120.841 24.3977 120.983 24.4936L147.814 42.4299C148.029 42.5723 148.135 42.8337 148.08 43.0865C148.024 43.3392 147.821 43.5339 147.565 43.5745L104.883 50.512C104.848 50.5178 104.815 50.5207 104.781 50.5207ZM120.819 25.8997L106.068 49.042L145.783 42.5868L120.819 25.8997Z" fill="white"/>
<path d="M66.387 63.1435C66.204 63.1435 66.0268 63.0651 65.9048 62.9198C65.7392 62.7222 65.7101 62.4433 65.8307 62.2168L82.1271 31.6634C82.2157 31.4978 82.374 31.3787 82.5585 31.3409C82.743 31.306 82.9333 31.3525 83.08 31.4716L105.178 49.4022C105.358 49.5474 105.442 49.7769 105.402 50.0035C105.36 50.2301 105.197 50.4161 104.979 50.4887L66.5846 63.1115C66.5192 63.1319 66.4524 63.1435 66.387 63.1435ZM82.8795 32.9301L67.6827 61.4237L103.487 49.6521L82.8795 32.9301Z" fill="white"/>
<path d="M104.781 50.5207C104.637 50.5207 104.497 50.4713 104.385 50.3784L82.2868 32.4478C82.095 32.2939 82.0122 32.0411 82.0732 31.8029C82.1342 31.5647 82.3274 31.3846 82.57 31.341L120.52 24.3977C120.761 24.3425 121.015 24.4558 121.156 24.665C121.296 24.8741 121.3 25.1443 121.165 25.3564L105.313 50.2302C105.216 50.3813 105.06 50.483 104.881 50.512C104.848 50.5178 104.815 50.5207 104.781 50.5207ZM84.1431 32.3345L104.63 48.9548L119.324 25.8967L84.1431 32.3345Z" fill="white"/>
<path d="M247.292 135.563C247.116 135.563 246.942 135.487 246.82 135.351L224.773 110.468C224.552 110.218 224.564 109.841 224.799 109.605L243.193 91.1694C243.366 90.9922 243.623 90.9312 243.855 91.0213C244.086 91.1055 244.246 91.3176 244.266 91.5616L247.919 134.88C247.943 135.15 247.79 135.406 247.54 135.511C247.46 135.545 247.376 135.563 247.292 135.563ZM226.109 110.076L246.505 133.094L243.124 93.02L226.109 110.076Z" fill="white"/>
<path d="M225.244 110.68C225.205 110.68 225.167 110.677 225.128 110.669C224.923 110.631 224.752 110.494 224.668 110.303L209.395 75.563C209.289 75.3219 209.345 75.0401 209.535 74.8571C209.725 74.6741 210.008 74.6247 210.247 74.7438L243.913 91.0474C244.096 91.1346 244.225 91.3089 244.26 91.5093C244.293 91.7098 244.228 91.9161 244.084 92.0584L225.69 110.494C225.571 110.614 225.41 110.68 225.244 110.68ZM211.237 76.6234L225.451 108.952L242.566 91.794L211.237 76.6234Z" fill="white"/>
<path d="M29.434 132.693C29.3556 132.693 29.2757 132.678 29.2002 132.646C28.943 132.544 28.7833 132.286 28.8066 132.01L32.3522 88.4212C32.3697 88.2033 32.5004 88.0087 32.6965 87.9099C32.8897 87.814 33.1235 87.8198 33.3124 87.9389L54.4517 101.082C54.6056 101.178 54.7102 101.335 54.7408 101.512C54.7713 101.689 54.7219 101.872 54.6086 102.014L29.9236 132.46C29.8016 132.611 29.62 132.693 29.434 132.693ZM33.5245 89.5542L30.2271 130.084L53.1792 101.773L33.5245 89.5542Z" fill="white"/>
<path d="M54.1186 102.247C54.0024 102.247 53.8876 102.215 53.7859 102.151L32.6467 89.008C32.4709 88.9005 32.3605 88.7117 32.3504 88.5054C32.3387 88.2991 32.4302 88.1016 32.5929 87.9766L66.0006 62.0163C66.217 61.8449 66.5192 61.8362 66.7472 61.996C66.9724 62.1528 67.0711 62.4376 66.9883 62.7019L54.7199 101.805C54.6618 101.991 54.5209 102.139 54.3379 102.206C54.2667 102.232 54.1927 102.247 54.1186 102.247ZM34.0804 88.4154L53.7612 100.652L65.1828 64.2475L34.0804 88.4154Z" fill="white"/>
<path d="M120.093 245.101H120.061L84.3551 243.323C84.1503 243.312 83.963 243.201 83.8526 243.027C83.7436 242.853 83.7262 242.638 83.8061 242.446L95.5937 214.577C95.6808 214.374 95.8682 214.231 96.0876 214.199C96.3054 214.179 96.5262 214.254 96.6657 214.429L120.584 244.076C120.739 244.267 120.767 244.535 120.655 244.756C120.546 244.968 120.329 245.101 120.093 245.101ZM85.3182 242.109L118.719 243.771L96.3447 216.038L85.3182 242.109Z" fill="white"/>
<path d="M84.3872 243.323C84.1882 243.323 83.9979 243.227 83.8788 243.065L58.9382 208.967C58.7871 208.761 58.7754 208.482 58.9105 208.264C59.0471 208.046 59.294 207.936 59.5526 207.974L96.2808 214.202C96.4696 214.234 96.6352 214.353 96.7267 214.522C96.8197 214.69 96.8299 214.891 96.7558 215.071L84.9682 242.94C84.8796 243.146 84.685 243.291 84.4598 243.318C84.4351 243.32 84.4119 243.323 84.3872 243.323ZM60.8715 209.476L84.239 241.423L95.2843 215.312L60.8715 209.476Z" fill="white"/>
<path d="M191.085 241.359C191.051 241.359 191.019 241.357 190.986 241.351C190.761 241.316 190.572 241.162 190.494 240.947L179.888 212.238C179.82 212.055 179.842 211.852 179.945 211.686C180.05 211.521 180.224 211.413 180.419 211.393L216.566 207.843C216.807 207.799 217.058 207.944 217.18 208.168C217.301 208.392 217.278 208.662 217.121 208.863L191.579 241.121C191.458 241.272 191.275 241.359 191.085 241.359ZM181.354 212.567L191.287 239.459L215.212 209.243L181.354 212.567Z" fill="white"/>
<path d="M191.084 241.359C191.069 241.359 191.054 241.359 191.038 241.356L157.089 238.867C156.85 238.849 156.641 238.698 156.551 238.475C156.461 238.254 156.505 237.998 156.664 237.821L180.009 211.602C180.155 211.436 180.376 211.355 180.597 211.402C180.813 211.442 180.993 211.593 181.07 211.802L191.676 240.511C191.75 240.712 191.716 240.935 191.589 241.107C191.468 241.266 191.282 241.359 191.084 241.359ZM158.455 237.705L190.153 240.029L180.251 213.223L158.455 237.705Z" fill="white"/>
<path d="M57.7718 145.557C57.6832 145.557 57.5946 145.539 57.5118 145.501L29.1736 132.637C28.9949 132.556 28.8657 132.396 28.8207 132.207C28.7756 132.016 28.8206 131.818 28.9441 131.664L53.6291 101.218C53.7918 101.021 54.0576 100.931 54.3045 101.015C54.55 101.091 54.7243 101.308 54.7461 101.564L58.3993 144.874C58.4182 145.095 58.318 145.313 58.135 145.44C58.0275 145.519 57.8996 145.557 57.7718 145.557ZM30.4373 131.827L57.0528 143.909L53.6218 103.229L30.4373 131.827Z" fill="white"/>
<path d="M39.9972 172.432C39.9638 172.432 39.9289 172.429 39.8955 172.423C39.65 172.383 39.4525 172.203 39.3886 171.964L28.8255 132.225C28.763 131.99 28.8414 131.74 29.0274 131.58C29.2133 131.426 29.4748 131.385 29.6941 131.487L58.0323 144.351C58.2008 144.429 58.3272 144.575 58.378 144.752C58.4289 144.929 58.3998 145.121 58.2981 145.275L40.523 172.15C40.4054 172.327 40.2064 172.432 39.9972 172.432ZM30.3855 133.186L40.2456 170.282L56.8397 145.193L30.3855 133.186Z" fill="white"/>
<path d="M235.574 172.432C235.377 172.432 235.189 172.339 235.069 172.179L215.375 145.772C215.254 145.609 215.218 145.397 215.279 145.205C215.34 145.013 215.489 144.859 215.681 144.795L247.093 134.334C247.32 134.264 247.565 134.317 247.735 134.485C247.904 134.651 247.965 134.898 247.892 135.124L236.174 171.993C236.103 172.217 235.911 172.383 235.679 172.423C235.644 172.429 235.609 172.432 235.574 172.432ZM216.907 145.716L235.346 170.442L246.316 135.92L216.907 145.716Z" fill="white"/>
<path d="M215.88 146.024C215.722 146.024 215.568 145.963 215.449 145.853C215.28 145.696 215.212 145.455 215.272 145.231L224.636 109.887C224.696 109.664 224.873 109.489 225.1 109.437C225.331 109.385 225.563 109.46 225.717 109.632L247.764 134.514C247.904 134.674 247.956 134.892 247.901 135.095C247.846 135.301 247.692 135.464 247.491 135.531L216.079 145.992C216.014 146.013 215.947 146.024 215.88 146.024ZM225.553 111.349L216.788 144.426L246.188 134.636L225.553 111.349Z" fill="white"/>
<path d="M209.972 75.9407C209.951 75.9407 209.929 75.9407 209.909 75.9378L172.255 72.0565C172.036 72.0333 171.845 71.8997 171.751 71.7021C171.655 71.5017 171.671 71.2692 171.79 71.0862L188.668 45.0968C188.782 44.9196 188.977 44.8121 189.186 44.8092C189.437 44.7918 189.594 44.908 189.713 45.0794L210.49 74.95C210.63 75.1534 210.641 75.4178 210.516 75.6299C210.401 75.8245 210.195 75.9407 209.972 75.9407ZM173.408 70.909L208.671 74.5433L189.214 46.5697L173.408 70.909Z" fill="white"/>
<path d="M172.319 72.0594C172.137 72.0594 171.965 71.9809 171.844 71.8444L146.989 43.3682C146.822 43.1765 146.786 42.9034 146.899 42.6739C147.011 42.4502 147.208 42.3136 147.502 42.3223L189.234 44.8092C189.458 44.8237 189.658 44.9544 189.759 45.1549C189.86 45.3553 189.847 45.5936 189.725 45.7824L172.848 71.7718C172.74 71.9374 172.56 72.0449 172.364 72.0565C172.348 72.0594 172.334 72.0594 172.319 72.0594ZM148.928 43.6704L172.245 70.386L188.078 46.0032L148.928 43.6704Z" fill="white"/>
<path d="M157.135 238.87H157.129C156.948 238.867 156.776 238.788 156.657 238.649L136.117 214.745C135.96 214.565 135.92 214.31 136.015 214.089C136.109 213.868 136.321 213.72 136.561 213.705L180.446 211.39C180.683 211.384 180.937 211.521 181.047 211.747C181.158 211.977 181.119 212.25 180.95 212.439L157.606 238.658C157.487 238.794 157.315 238.87 157.135 238.87ZM137.908 214.896L157.144 237.284L179.005 212.729L137.908 214.896Z" fill="white"/>
<path d="M120.093 245.101C119.891 245.101 119.699 245.005 119.579 244.837C119.439 244.639 119.425 244.381 119.54 244.169L136.041 214.034C136.141 213.851 136.323 213.732 136.529 213.708C136.725 213.67 136.937 213.766 137.072 213.926L157.613 237.83C157.761 238.001 157.805 238.239 157.728 238.454C157.651 238.666 157.463 238.823 157.24 238.861L120.198 245.092C120.163 245.098 120.128 245.101 120.093 245.101ZM136.709 215.437L121.27 243.634L155.929 237.803L136.709 215.437Z" fill="white"/>
<path d="M120.093 245.101C119.903 245.101 119.723 245.017 119.602 244.866L95.6842 215.219C95.5331 215.033 95.5026 214.774 95.6042 214.557C95.7074 214.336 95.9267 214.196 96.1678 214.193L136.587 213.705C136.799 213.63 137.018 213.819 137.135 214.01C137.249 214.202 137.255 214.443 137.148 214.638L120.647 244.773C120.545 244.959 120.359 245.081 120.15 245.098C120.131 245.101 120.112 245.101 120.093 245.101ZM97.481 215.44L119.993 243.344L135.524 214.978L97.481 215.44Z" fill="white"/>
<path d="M96.1753 215.454C96.1404 215.454 96.1055 215.451 96.0692 215.446L59.341 209.217C59.1405 209.182 58.9691 209.054 58.879 208.868C58.7904 208.685 58.7963 208.47 58.895 208.293L74.4506 179.962C74.5581 179.765 74.7629 179.64 74.9881 179.634C75.2088 179.628 75.4238 179.744 75.54 179.936L96.7127 214.496C96.842 214.705 96.8362 214.972 96.6967 215.178C96.5791 215.353 96.383 215.454 96.1753 215.454ZM60.426 208.122L94.9129 213.97L75.033 181.519L60.426 208.122Z" fill="white"/>
<path d="M59.4467 209.226H59.4424C59.21 209.223 58.9979 209.095 58.889 208.889L39.439 172.095C39.3243 171.877 39.3475 171.61 39.4986 171.415C39.6526 171.218 39.9053 171.133 40.145 171.189L75.1505 179.651C75.3408 179.698 75.4991 179.831 75.579 180.009C75.6574 180.189 75.6487 180.395 75.5543 180.566L59.9987 208.897C59.8883 209.101 59.6763 209.226 59.4467 209.226ZM41.2068 172.743L59.4569 207.268L74.0538 180.683L41.2068 172.743Z" fill="white"/>
<path d="M75.0021 180.895C74.9527 180.895 74.9033 180.889 74.8539 180.877L39.8484 172.415C39.6494 172.365 39.4853 172.223 39.4098 172.031C39.3343 171.842 39.3575 171.624 39.4708 171.453L57.2459 144.578C57.3723 144.389 57.5873 144.261 57.8124 144.299C58.039 144.313 58.2394 144.447 58.3382 144.65L75.5686 179.988C75.6761 180.206 75.6456 180.468 75.4931 180.659C75.3725 180.81 75.1909 180.895 75.0021 180.895ZM41.0177 171.401L73.8487 179.338L57.6889 146.193L41.0177 171.401Z" fill="white"/>
<path d="M216.627 209.101C216.4 209.101 216.191 208.979 216.079 208.781L200.021 180.575C199.924 180.404 199.912 180.195 199.991 180.014C200.069 179.831 200.229 179.698 200.421 179.651L235.426 171.189C235.664 171.128 235.916 171.218 236.07 171.412C236.222 171.607 236.247 171.871 236.133 172.092L217.186 208.761C217.08 208.964 216.871 209.095 216.64 209.101H216.627ZM201.53 180.68L216.601 207.148L234.38 172.737L201.53 180.68Z" fill="white"/>
<path d="M180.479 212.651C180.261 212.651 180.058 212.538 179.943 212.352C179.817 212.145 179.818 211.887 179.946 211.683L200.035 179.927C200.153 179.741 200.352 179.628 200.583 179.634C200.803 179.64 201.007 179.759 201.116 179.953L217.174 208.159C217.28 208.345 217.284 208.569 217.185 208.761C217.088 208.95 216.901 209.078 216.687 209.098L180.54 212.648C180.52 212.651 180.499 212.651 180.479 212.651ZM200.539 181.487L181.701 211.268L215.598 207.939L200.539 181.487Z" fill="white"/>
<path d="M200.568 180.895C200.384 180.895 200.206 180.813 200.084 180.668C199.93 180.485 199.894 180.229 199.991 180.012L215.303 145.141C215.393 144.935 215.585 144.793 215.808 144.766C216.038 144.766 216.252 144.839 216.385 145.016L236.079 171.424C236.205 171.595 236.239 171.816 236.166 172.017C236.095 172.214 235.928 172.365 235.722 172.415L200.716 180.877C200.667 180.889 200.618 180.895 200.568 180.895ZM216.022 146.637L201.656 179.352L234.497 171.412L216.022 146.637Z" fill="white"/>
<path d="M54.119 102.247C53.9752 102.247 53.8328 102.197 53.718 102.102C53.5205 101.939 53.4406 101.672 53.5176 101.428L65.786 62.3243C65.847 62.1297 66.001 61.9757 66.1956 61.9118C66.3932 61.845 66.6053 61.8857 66.7694 62.0106L91.8204 81.0596C91.9904 81.1903 92.0833 81.3966 92.0674 81.6116C92.0499 81.8265 91.925 82.0154 91.7362 82.117L54.4167 102.171C54.3238 102.221 54.2206 102.247 54.119 102.247ZM66.72 63.559L55.1837 100.329L90.2763 81.4721L66.72 63.559Z" fill="white"/>
<path d="M91.4385 82.1926C91.302 82.1926 91.1684 82.149 91.0565 82.0647L66.0055 63.0157C65.8196 62.8734 65.7266 62.641 65.7658 62.4086C65.805 62.179 65.9677 61.9873 66.19 61.9147L104.584 49.2918C104.818 49.2163 105.077 49.2802 105.245 49.4632C105.412 49.6434 105.459 49.9077 105.363 50.1343L92.0196 81.8062C91.944 81.9863 91.7886 82.1199 91.6012 82.1722C91.5475 82.1868 91.4923 82.1926 91.4385 82.1926ZM67.7239 62.7368L91.1727 80.5686L103.663 50.9216L67.7239 62.7368Z" fill="white"/>
<path d="M131.602 74.2063C131.389 74.2063 131.19 74.0988 131.072 73.9187C130.95 73.727 130.938 73.4858 131.043 73.2854L146.905 42.6623C147.001 42.4764 147.182 42.3514 147.389 42.3282C147.596 42.3021 147.803 42.3805 147.939 42.5374L172.794 71.0136C172.952 71.1966 172.993 71.4522 172.9 71.6759C172.806 71.8967 172.594 72.0449 172.352 72.0594L131.635 74.2063H131.602ZM147.598 44.0655L132.668 72.8874L170.993 70.8683L147.598 44.0655Z" fill="white"/>
<path d="M131.602 74.2063C131.449 74.2063 131.301 74.1511 131.185 74.0494L104.365 50.3638C104.182 50.2011 104.109 49.9484 104.176 49.716C104.244 49.4807 104.44 49.3064 104.68 49.2686L147.362 42.3312C147.609 42.2905 147.834 42.3893 147.974 42.5839C148.115 42.7756 148.133 43.0313 148.023 43.2434L132.161 73.8665C132.072 74.0379 131.908 74.1599 131.718 74.1948C131.679 74.2035 131.64 74.2063 131.602 74.2063ZM106.196 50.2999L131.413 72.5678L146.328 43.775L106.196 50.2999Z" fill="white"/>
<path d="M91.4384 82.1925C91.251 82.1925 91.0709 82.1083 90.9503 81.9601C90.8022 81.78 90.7673 81.5331 90.8574 81.3181L104.201 49.6462C104.279 49.4574 104.443 49.3209 104.641 49.2773C104.838 49.2309 105.048 49.2831 105.199 49.4168L132.019 73.1024C132.199 73.2622 132.273 73.5091 132.211 73.7415C132.148 73.971 131.959 74.1482 131.725 74.1947L91.5618 82.1809C91.5197 82.1896 91.479 82.1925 91.4384 82.1925ZM105.021 50.9419L92.4799 80.7138L130.231 73.2069L105.021 50.9419Z" fill="white"/>
<path d="M215.88 146.024C215.665 146.024 215.462 145.914 215.345 145.728L192.284 108.876C192.161 108.679 192.156 108.426 192.274 108.225C192.392 108.022 192.624 107.923 192.848 107.912L225.274 109.42C225.464 109.428 225.64 109.524 225.753 109.678C225.865 109.832 225.903 110.027 225.853 110.213L216.488 145.557C216.425 145.798 216.223 145.981 215.974 146.016C215.942 146.021 215.91 146.024 215.88 146.024ZM193.991 109.228L215.643 143.828L224.436 110.643L193.991 109.228Z" fill="white"/>
<path d="M225.245 110.68H225.216L192.79 109.173C192.575 109.161 192.38 109.045 192.273 108.859C192.165 108.673 192.161 108.443 192.258 108.252L209.412 75.0198C209.524 74.8048 209.699 74.6392 209.993 74.6799C210.235 74.6886 210.452 74.8339 210.549 75.0575L225.822 109.797C225.91 109.995 225.888 110.227 225.765 110.407C225.647 110.579 225.453 110.68 225.245 110.68ZM193.83 107.958L224.259 109.373L209.928 76.7716L193.83 107.958Z" fill="white"/>
<path d="M192.819 109.173C192.59 109.173 192.379 109.048 192.267 108.847L171.767 71.734C171.654 71.5277 171.664 71.2779 171.793 71.0803C171.924 70.8857 172.162 70.7637 172.383 70.8015L210.036 74.6827C210.244 74.706 210.427 74.828 210.527 75.011C210.626 75.194 210.628 75.4148 210.533 75.5979L193.38 108.833C193.271 109.042 193.009 109.129 192.819 109.173ZM173.453 72.1785L192.8 107.206L208.989 75.8419L173.453 72.1785Z" fill="white"/>
<path d="M57.7717 145.557C57.7064 145.557 57.6396 145.545 57.5756 145.525C57.3345 145.446 57.1646 145.231 57.1442 144.979L53.491 101.669C53.4707 101.436 53.5825 101.21 53.7815 101.085C53.9805 100.957 54.2333 100.954 54.4352 101.07L81.9556 117.075C82.1183 117.171 82.2302 117.333 82.2607 117.519C82.2912 117.705 82.2374 117.894 82.1139 118.036L58.2467 145.342C58.1247 145.481 57.9504 145.557 57.7717 145.557ZM54.8477 102.77L58.2744 143.392L80.6614 117.781L54.8477 102.77Z" fill="white"/>
<path d="M81.6396 118.251C81.5292 118.251 81.4202 118.222 81.3229 118.167L53.8025 102.163C53.6049 102.046 53.4858 101.834 53.4887 101.605C53.493 101.378 53.6194 101.169 53.8213 101.061L91.1408 81.0073C91.363 80.8911 91.6361 80.9114 91.8307 81.0683C92.0283 81.2251 92.1126 81.4837 92.0472 81.7277L82.2481 117.786C82.1958 117.975 82.0593 118.129 81.8792 118.205C81.8022 118.237 81.7209 118.251 81.6396 118.251ZM55.4105 101.637L81.2474 116.662L90.4465 82.8114L55.4105 101.637Z" fill="white"/>
<path d="M96.1751 215.454C95.9441 215.454 95.732 215.329 95.6216 215.126C95.5097 214.92 95.5214 214.67 95.6492 214.475L115.625 184.366C115.741 184.192 115.936 184.087 116.145 184.085H116.151C116.358 184.085 116.552 184.186 116.669 184.358L137.113 213.978C137.245 214.17 137.261 214.417 137.153 214.626C137.047 214.833 136.835 214.963 136.602 214.966L96.1823 215.454H96.1751ZM116.161 185.839L97.3589 214.179L135.403 213.72L116.161 185.839Z" fill="white"/>
<path d="M96.1749 215.454C95.9658 215.44 95.7508 215.341 95.6375 215.152L74.4648 180.593C74.3399 180.389 74.3413 180.131 74.4691 179.927C74.597 179.727 74.8193 179.608 75.0705 179.637L116.219 184.087C116.437 184.111 116.627 184.247 116.722 184.448C116.815 184.645 116.797 184.881 116.677 185.064L96.7008 215.172C96.5831 215.35 96.3856 215.454 96.1749 215.454ZM76.2093 181.028L96.1967 213.653L115.052 185.229L76.2093 181.028Z" fill="white"/>
<path d="M136.594 214.966H136.578C136.376 214.96 136.191 214.859 136.076 214.693L115.632 185.072C115.499 184.881 115.484 184.631 115.593 184.422C115.702 184.215 115.917 184.085 116.151 184.085H159.417C159.657 184.085 159.876 184.221 159.982 184.436C160.088 184.651 160.064 184.91 159.917 185.098L137.094 214.719C136.973 214.876 136.789 214.966 136.594 214.966ZM117.352 185.345L136.622 213.267L158.136 185.345H117.352Z" fill="white"/>
<path d="M136.594 214.966C136.36 214.966 136.145 214.835 136.037 214.629C135.922 214.411 135.945 214.147 136.095 213.952L158.917 184.332C159.154 184.018 159.674 184.015 159.917 184.332L180.979 211.634C181.121 211.82 181.15 212.07 181.052 212.285C180.954 212.497 180.747 212.636 180.513 212.651L136.628 214.966H136.594ZM159.417 185.746L137.931 213.633L179.246 211.454L159.417 185.746Z" fill="white"/>
<path d="M180.479 212.651C180.285 212.651 180.1 212.561 179.98 212.407L158.917 185.098C158.779 184.918 158.747 184.677 158.838 184.468C158.926 184.259 159.122 184.114 159.349 184.087L200.5 179.637C200.743 179.596 200.974 179.724 201.103 179.93C201.231 180.136 201.231 180.398 201.102 180.601L181.013 212.357C180.902 212.532 180.715 212.639 180.508 212.651H180.479ZM160.602 185.22L180.429 210.922L199.338 181.031L160.602 185.22Z" fill="white"/>
<path d="M116.151 185.345C116.129 185.345 116.106 185.345 116.083 185.342L74.9344 180.892C74.7078 180.866 74.5117 180.72 74.4216 180.508C74.333 180.299 74.365 180.058 74.5059 179.875L96.8595 151.251C96.9888 151.088 97.1805 150.969 97.4027 151.012C97.6119 151.027 97.8008 151.146 97.9039 151.329L116.699 184.404C116.816 184.61 116.808 184.863 116.678 185.061C116.561 185.241 116.362 185.345 116.151 185.345ZM76.1967 179.759L114.995 183.957L97.2735 152.77L76.1967 179.759Z" fill="white"/>
<path d="M75.0024 180.895C74.9806 180.895 74.9588 180.895 74.937 180.892C74.7206 180.869 74.5317 180.735 74.4359 180.54L57.2055 145.202C57.1023 144.99 57.1256 144.737 57.268 144.548C57.4089 144.363 57.6398 144.264 57.8781 144.304L97.4621 151.018C97.6799 151.056 97.863 151.204 97.9443 151.413C98.0242 151.62 97.9893 151.852 97.8528 152.029L75.4992 180.654C75.3786 180.805 75.1955 180.895 75.0024 180.895ZM58.8759 145.751L75.1273 179.082L96.2084 152.084L58.8759 145.751Z" fill="white"/>
<path d="M97.3559 152.27C97.321 152.27 97.2862 152.267 97.2499 152.262L57.6659 145.548C57.4422 145.51 57.2548 145.353 57.1778 145.138C57.1023 144.923 57.1473 144.682 57.297 144.511L81.1641 117.205C81.305 117.046 81.5069 116.979 81.7292 116.996C81.9398 117.028 82.1214 117.162 82.2114 117.356L97.9283 151.376C98.0256 151.588 97.998 151.837 97.857 152.023C97.7365 152.18 97.5505 152.27 97.3559 152.27ZM58.9877 144.493L96.2824 150.818L81.4749 118.768L58.9877 144.493Z" fill="white"/>
<path d="M178.807 148.979C178.613 148.979 178.428 148.889 178.308 148.732C178.178 148.563 178.142 148.34 178.213 148.139L192.225 108.333C192.305 108.104 192.509 107.944 192.749 107.915C192.99 107.9 193.225 108.002 193.353 108.208L216.414 145.06C216.53 145.246 216.542 145.481 216.443 145.676C216.343 145.873 216.15 146.004 215.929 146.021L178.857 148.976C178.841 148.979 178.823 148.979 178.807 148.979ZM192.979 109.986L179.724 147.642L214.795 144.848L192.979 109.986Z" fill="white"/>
<path d="M159.417 185.345C159.21 185.345 159.013 185.244 158.896 185.066C158.765 184.875 158.752 184.625 158.861 184.419L178.251 148.052C178.356 147.857 178.553 147.733 178.773 147.718C178.989 147.701 179.204 147.808 179.328 147.994L201.089 179.91C201.214 180.093 201.234 180.328 201.141 180.529C201.048 180.729 200.856 180.866 200.637 180.892L159.486 185.343C159.462 185.345 159.439 185.345 159.417 185.345ZM178.873 149.563L160.534 183.96L199.456 179.75L178.873 149.563Z" fill="white"/>
<path d="M200.568 180.895C200.361 180.895 200.166 180.793 200.048 180.619L178.287 148.703C178.16 148.517 178.142 148.279 178.239 148.075C178.335 147.875 178.533 147.738 178.758 147.721L215.831 144.766C216.035 144.726 216.265 144.848 216.394 145.028C216.522 145.208 216.547 145.443 216.457 145.647L201.145 180.517C201.054 180.726 200.855 180.871 200.627 180.892C200.608 180.895 200.587 180.895 200.568 180.895ZM179.94 148.892L200.448 178.969L214.879 146.106L179.94 148.892Z" fill="white"/>
<path d="M178.808 148.979C178.584 148.979 178.376 148.86 178.263 148.665L155.645 109.69C155.533 109.498 155.532 109.26 155.641 109.065C155.75 108.87 155.953 108.748 156.175 108.743L192.805 107.912C192.97 107.88 193.207 108.005 193.329 108.173C193.451 108.339 193.483 108.557 193.413 108.751L179.402 148.558C179.32 148.79 179.111 148.953 178.867 148.976C178.847 148.979 178.827 148.979 178.808 148.979ZM157.27 109.98L178.667 146.849L191.921 109.193L157.27 109.98Z" fill="white"/>
<path d="M156.189 110.003C155.98 110.003 155.786 109.899 155.668 109.727C155.547 109.55 155.526 109.324 155.61 109.126L171.739 71.1821C171.834 70.9613 172.046 70.8131 172.287 70.7986C172.544 70.8102 172.753 70.9148 172.871 71.124L193.371 108.237C193.477 108.432 193.475 108.664 193.365 108.856C193.256 109.048 193.054 109.167 192.833 109.173L156.204 110.004L156.189 110.003ZM172.393 72.8671L157.151 108.722L191.764 107.935L172.393 72.8671Z" fill="white"/>
<path d="M156.189 110.003C155.983 110.003 155.788 109.902 155.669 109.73L131.082 73.9332C130.952 73.7444 130.935 73.5004 131.037 73.297C131.137 73.0937 131.34 72.9571 131.568 72.9455L172.285 70.7986C172.502 70.8015 172.711 70.8886 172.834 71.0688C172.959 71.246 172.984 71.4755 172.898 71.6759L156.769 109.62C156.679 109.832 156.481 109.977 156.252 110.001C156.231 110.003 156.21 110.003 156.189 110.003ZM132.758 74.1453L156.059 108.069L171.344 72.1118L132.758 74.1453Z" fill="white"/>
<path d="M97.356 152.27H97.3386C97.0989 152.265 96.8839 152.122 96.7837 151.904L81.0669 117.885C80.9841 117.705 80.9899 117.493 81.0858 117.319C81.1817 117.144 81.3545 117.025 81.5521 116.996L118.074 111.857C118.308 111.831 118.54 111.927 118.677 112.121C118.813 112.313 118.829 112.569 118.718 112.778L97.9124 151.936C97.8034 152.143 97.5884 152.27 97.356 152.27ZM82.5674 118.126L97.3953 150.222L117.024 113.278L82.5674 118.126Z" fill="white"/>
<path d="M118.161 113.112C117.968 113.112 117.784 113.022 117.663 112.868C117.532 112.699 117.496 112.476 117.566 112.275L131.006 73.3696C131.083 73.1459 131.281 72.9833 131.518 72.9513C131.749 72.931 131.987 73.024 132.122 73.2186L156.71 109.016C156.836 109.202 156.855 109.44 156.759 109.643C156.662 109.847 156.466 109.983 156.24 110.001L118.212 113.109C118.196 113.112 118.179 113.112 118.161 113.112ZM131.789 74.9616L119.072 111.776L155.055 108.833L131.789 74.9616Z" fill="white"/>
<path d="M118.161 113.112C117.98 113.112 117.805 113.034 117.685 112.894L90.962 81.9747C90.8152 81.8033 90.7688 81.5709 90.8429 81.3588C90.9155 81.1438 91.0956 80.987 91.3149 80.9434L131.479 72.9572C131.707 72.9136 131.929 72.9949 132.077 73.1605C132.225 73.3319 132.272 73.5672 132.198 73.7822L118.757 112.688C118.683 112.9 118.501 113.057 118.28 113.1C118.241 113.109 118.201 113.112 118.161 113.112ZM92.6237 81.9689L117.923 111.241L130.648 74.4068L92.6237 81.9689Z" fill="white"/>
<path d="M81.6395 118.251C81.4594 118.251 81.288 118.176 81.1674 118.036C81.0265 117.879 80.9757 117.659 81.0309 117.455L90.8299 81.3966C90.8909 81.1728 91.071 80.9986 91.2991 80.9463C91.5228 80.8998 91.7639 80.9753 91.915 81.1496L118.638 112.069C118.789 112.243 118.833 112.487 118.751 112.702C118.67 112.92 118.478 113.074 118.249 113.106L81.7266 118.245C81.6975 118.248 81.6686 118.251 81.6395 118.251ZM91.7363 82.8695L82.4979 116.863L116.928 112.02L91.7363 82.8695Z" fill="white"/>
<path d="M97.3562 152.27C97.1384 152.27 96.9365 152.157 96.8202 151.971C96.7026 151.782 96.6939 151.541 96.7999 151.344L117.605 112.185C117.714 111.979 117.929 111.851 118.161 111.851C118.395 111.851 118.612 111.982 118.719 112.188L138.648 150.208C138.75 150.402 138.744 150.632 138.634 150.821C138.525 151.007 138.326 151.126 138.108 151.132L97.3737 152.27L97.3562 152.27ZM118.157 113.832L98.421 150.98L137.064 149.9L118.157 113.832Z" fill="white"/>
<path d="M138.09 151.132C137.856 151.132 137.641 151.001 137.532 150.795L117.603 112.775C117.504 112.586 117.507 112.362 117.609 112.177C117.711 111.994 117.9 111.871 118.11 111.854L156.138 108.746C156.339 108.716 156.574 108.827 156.702 109.007C156.831 109.187 156.856 109.422 156.766 109.626L138.667 150.754C138.57 150.978 138.353 151.123 138.112 151.132L138.09 151.132ZM119.162 113.034L138.041 149.049L155.187 110.088L119.162 113.034Z" fill="white"/>
<path d="M138.091 151.132C137.884 151.132 137.69 151.03 137.572 150.858C137.447 150.678 137.425 150.449 137.514 150.248L155.613 109.12C155.709 108.902 155.918 108.757 156.155 108.743C156.373 108.716 156.615 108.85 156.734 109.056L179.352 148.032C179.463 148.221 179.466 148.456 179.363 148.648C179.258 148.842 179.06 148.967 178.841 148.979L138.124 151.132L138.091 151.132ZM156.267 110.762L139.08 149.818L177.746 147.773L156.267 110.762Z" fill="white"/>
<path d="M116.151 185.345H116.133C115.914 185.34 115.712 185.218 115.603 185.026L96.8083 151.951C96.6993 151.759 96.6979 151.524 96.8068 151.332C96.9158 151.137 97.1177 151.015 97.3385 151.01L138.073 149.871C138.26 149.853 138.523 149.987 138.639 150.19C138.754 150.394 138.747 150.643 138.621 150.841L116.681 185.055C116.565 185.235 116.366 185.345 116.151 185.345ZM98.4221 152.241L116.183 183.498L136.917 151.163L98.4221 152.241Z" fill="white"/>
<path d="M159.417 185.345H116.151C115.92 185.345 115.708 185.22 115.598 185.017C115.487 184.814 115.496 184.57 115.621 184.375L137.561 150.161C137.677 149.981 137.876 149.871 138.091 149.871H138.095C138.311 149.874 138.51 149.984 138.625 150.167L159.952 184.381C160.074 184.576 160.08 184.82 159.968 185.02C159.857 185.22 159.647 185.345 159.417 185.345ZM117.304 184.085H158.281L138.083 151.681L117.304 184.085Z" fill="white"/>
<path d="M159.417 185.345C159.201 185.345 158.997 185.232 158.883 185.049L137.556 150.835C137.438 150.646 137.428 150.408 137.531 150.211C137.634 150.013 137.835 149.882 138.057 149.871L178.774 147.718C178.998 147.718 179.217 147.82 179.339 148.011C179.461 148.203 179.47 148.444 179.364 148.645L159.973 185.011C159.867 185.209 159.664 185.337 159.439 185.345L159.417 185.345ZM139.19 151.073L159.375 183.454L177.727 149.037L139.19 151.073Z" fill="white"/>
</svg>
